<svg width="29" height="30" viewBox="0 0 29 30" fill="none" xmlns="http://www.w3.org/2000/svg">
<path d="M0 10.5327V1.26329C0 0.928242 0.13888 0.60692 0.386087 0.370008C0.633294 0.133096 0.968578 0 1.31818 0H27.6818C28.0314 0 28.3667 0.133096 28.6139 0.370008C28.8611 0.60692 29 0.928242 29 1.26329V10.5327C29 23.7972 17.2517 28.1871 14.9119 28.9293C14.6461 29.0236 14.3539 29.0236 14.0881 28.9293C11.7483 28.1871 0 23.7972 0 10.5327Z" fill="white"/>
<path d="M27.1087 0H1.8913C1.3897 0 0.908638 0.197956 0.55395 0.55032C0.199262 0.902684 0 1.38059 0 1.87891V11.0699C0 24.645 11.5842 29.1388 13.9168 29.906C14.2954 30.0313 14.7046 30.0313 15.0832 29.906C17.4158 29.1388 29 24.645 29 11.0699V1.87891C29 1.38059 28.8007 0.902684 28.446 0.55032C28.0914 0.197956 27.6103 0 27.1087 0ZM27.7391 11.0699C27.7391 23.7839 16.8641 28.0114 14.6891 28.716C14.5675 28.7632 14.4325 28.7632 14.3109 28.716C12.1359 28.0114 1.26087 23.7839 1.26087 11.0699V1.87891C1.26087 1.7128 1.32729 1.5535 1.44552 1.43605C1.56375 1.31859 1.7241 1.25261 1.8913 1.25261H27.1087C27.2759 1.25261 27.4363 1.31859 27.5545 1.43605C27.6727 1.5535 27.7391 1.7128 27.7391 1.87891V11.0699Z" fill="#F91942"/>
<rect x="10.2246" y="7.11719" width="14.2276" height="1.52573" rx="0.762867" transform="rotate(45 10.2246 7.11719)" fill="#F91942"/>
<rect width="14.2276" height="1.52573" rx="0.762867" transform="matrix(-0.707107 0.707107 0.707107 0.707107 19.207 7.11719)" fill="#F91942"/>
</svg>
