<svg width="20" height="20" viewBox="0 0 20 20" fill="none" xmlns="http://www.w3.org/2000/svg">
<path d="M20 10C20 15.515 15.514 20 10 20C4.486 20 0 15.515 0 10C0 4.486 4.486 0 10 0C15.514 0 20 4.486 20 10Z" fill="#F91942"/>
<path d="M14.2201 8.55797C14.2201 8.74897 14.1471 8.94097 14.0011 9.08697L10.5311 12.574C10.3901 12.715 10.1991 12.794 9.99909 12.794C9.80009 12.794 9.60909 12.715 9.46809 12.574L5.99609 9.08697C5.70409 8.79397 5.70409 8.31997 5.99809 8.02697C6.29209 7.73497 6.76709 7.73597 7.05909 8.02897L9.99909 10.982L12.9391 8.02897C13.2311 7.73597 13.7051 7.73497 13.9991 8.02697C14.1471 8.17297 14.2201 8.36597 14.2201 8.55797Z" fill="white"/>
</svg>
