<svg width="20" height="20" viewBox="0 0 20 20" fill="none" xmlns="http://www.w3.org/2000/svg">
<path d="M20 10C20 15.515 15.514 20 10 20C4.486 20 0 15.515 0 10C0 4.486 4.486 0 10 0C15.514 0 20 4.486 20 10Z" fill="#F91942"/>
<path d="M14.2201 8.56188C14.2201 8.75288 14.1471 8.94488 14.0011 9.09088L10.5311 12.5779C10.3901 12.7189 10.1991 12.7979 9.99909 12.7979C9.80009 12.7979 9.60909 12.7189 9.46809 12.5779L5.99609 9.09088C5.70409 8.79788 5.70409 8.32388 5.99809 8.03088C6.29209 7.73888 6.76709 7.73988 7.05909 8.03288L9.99909 10.9859L12.9391 8.03288C13.2311 7.73988 13.7051 7.73888 13.9991 8.03088C14.1471 8.17688 14.2201 8.36988 14.2201 8.56188Z" fill="white"/>
</svg>
