<svg width="20" height="22" viewBox="0 0 20 22" fill="none" xmlns="http://www.w3.org/2000/svg">
<path d="M18.4545 8.56757V5.32432C18.4545 4.1302 17.4777 3.16216 16.2727 3.16216H3.18182C1.97683 3.16216 1 4.1302 1 5.32432V18.2973C1 19.4914 1.97683 20.4595 3.18182 20.4595H6.45455M13 1V5.32432M6.45455 1V5.32432M1 9.64865H6.45455M14.0909 14.1892V16.0135L15.0727 17.1081M19 16.1351C19 18.8219 16.8021 21 14.0909 21C11.3797 21 9.18182 18.8219 9.18182 16.1351C9.18182 13.4483 11.3797 11.2703 14.0909 11.2703C16.8021 11.2703 19 13.4483 19 16.1351Z" stroke="#F91942" stroke-width="1.5" stroke-linecap="round" stroke-linejoin="round"/>
</svg>
