<svg width="20" height="20" viewBox="0 0 20 20" fill="none" xmlns="http://www.w3.org/2000/svg">
<path d="M19 8.41177V16.8824C19 18.0519 17.9926 19 16.75 19H3.25C2.00736 19 1 18.0519 1 16.8824V8.41177M13.375 4.17647V3.11765C13.375 1.9481 12.3676 1 11.125 1H8.875C7.63236 1 6.625 1.9481 6.625 3.11765V4.17647M10 10.5294V14.7647M3.25 12.6471H16.75C17.9926 12.6471 19 11.699 19 10.5294V6.29412C19 5.12457 17.9926 4.17647 16.75 4.17647H3.25C2.00736 4.17647 1 5.12457 1 6.29412V10.5294C1 11.699 2.00736 12.6471 3.25 12.6471Z" stroke="#F91942" stroke-width="1.5" stroke-linecap="round" stroke-linejoin="round"/>
</svg>
