<svg width="20" height="20" viewBox="0 0 20 20" fill="none" xmlns="http://www.w3.org/2000/svg">
<path d="M13.7059 7.88233H6.29416M11.5883 12.1176H6.29416M19 10C19.0036 11.3975 18.6771 12.7761 18.047 14.0235C17.3 15.5183 16.1515 16.7756 14.7302 17.6545C13.309 18.5334 11.6711 18.9993 10 19C8.6025 19.0036 7.2239 18.6771 5.97648 18.047L1.00003 18.4705L1.95297 14.0235C1.3229 12.7761 0.996386 11.3975 1.00003 10C1.00068 8.32893 1.46656 6.69103 2.34549 5.26977C3.22443 3.84852 4.4817 2.70004 5.97648 1.95297C7.2239 1.3229 8.6025 0.996386 10 1.00003H10.5294C12.7364 1.12179 14.8209 2.0533 16.3838 3.61623C17.9467 5.17915 18.8782 7.26364 19 9.47059V10Z" stroke="#F91942" stroke-width="1.5" stroke-linecap="round" stroke-linejoin="round"/>
</svg>
