<svg width="41" height="40" viewBox="0 0 41 40" fill="none" xmlns="http://www.w3.org/2000/svg">
<path d="M40.0029 19.6652C40.0029 8.82827 31.4219 0 20.8953 0C17.1536 0 13.5366 1.11593 10.4185 3.19901C9.9695 3.49659 9.84478 4.11655 10.1441 4.58772C10.4435 5.0341 11.0671 5.15809 11.541 4.86051C14.3348 2.97582 17.5527 1.98388 20.8953 1.98388C30.3493 1.98388 38.0323 9.9194 38.0323 19.6652C38.0323 23.1618 37.0594 26.5096 35.2135 29.3862L33.6919 28.0471L32.4696 34.0484L38.3066 32.0893L36.7351 30.7006C38.8804 27.452 40.0029 23.6578 40.0029 19.6652Z" fill="#F91942"/>
<path d="M4.39831e-05 20.3348C4.4936e-05 31.1717 8.58101 40 19.1077 40C22.8494 40 26.4663 38.8841 29.5844 36.801C30.0334 36.5034 30.1582 35.8834 29.8588 35.4123C29.5595 34.9659 28.9359 34.8419 28.4619 35.1395C25.6681 37.0242 22.4502 38.0161 19.1077 38.0161C9.65363 38.0161 1.97068 30.0806 1.97068 20.3348C1.97067 16.8382 2.94351 13.4904 4.78942 10.6138L6.31105 11.9529L7.53333 5.95165L1.69628 7.91073L3.2678 9.29945C1.12255 12.5481 4.3632e-05 16.3422 4.39831e-05 20.3348Z" fill="#F91942"/>
<path d="M28.7303 15.8991H28.4944C28.2584 14.9935 26.6592 10 20 10C12.6854 10 11.2434 15.1229 11.0861 15.925C8.2809 16.0285 6 18.3829 6 21.3066C6 23.4023 7.20599 25.2911 9.0412 26.1708C9.25094 28.3182 11.0075 30 13.1573 30C15.1236 30 16.7753 28.6028 17.1948 26.6882H22.7266C23.1199 28.6028 24.7715 30 26.764 30C28.8876 30 30.6442 28.3441 30.8801 26.2225C32.7678 25.3687 34 23.4541 34 21.3066C33.9738 18.3312 31.6142 15.8991 28.7303 15.8991ZM15.779 25.8603C15.7266 27.3092 14.573 28.4476 13.1573 28.4476C11.7154 28.4476 10.5356 27.2316 10.5356 25.7568C10.5356 25.7309 10.5356 25.705 10.5356 25.705V25.6792C10.588 24.2303 11.7416 23.0918 13.1573 23.0918C14.5993 23.0918 15.779 24.3079 15.779 25.7827C15.779 25.8085 15.779 25.8344 15.779 25.8603ZM26.7378 28.4476C25.3221 28.4476 24.1685 27.3092 24.1161 25.8603C24.1161 25.8344 24.1161 25.7827 24.1161 25.7568C24.1161 24.282 25.2959 23.066 26.7378 23.066C28.1798 23.066 29.3333 24.2303 29.3595 25.6792V25.705V25.7309C29.3595 27.2574 28.1798 28.4476 26.7378 28.4476ZM30.6966 24.5407C30.1985 22.7814 28.6255 21.5136 26.7378 21.5136C24.6667 21.5136 22.9625 23.0918 22.6479 25.11H17.2472C16.9588 23.066 15.2285 21.5136 13.1573 21.5136C11.2959 21.5136 9.72285 22.7555 9.22472 24.489C8.17603 23.7904 7.5206 22.6003 7.5206 21.2807C7.5206 19.1591 9.1985 17.4515 11.2697 17.4515H12.5805L12.7378 16.1578C12.7378 16.1578 13.6554 11.423 20.1573 11.423C25.8989 11.423 27.0262 16.0285 27.0262 16.0285L27.2622 17.4256H28.7303C30.8015 17.4256 32.4794 19.1591 32.4794 21.2549C32.4794 22.652 31.7978 23.868 30.6966 24.5407Z" fill="#F91942"/>
</svg>
