<svg width="20" height="14" viewBox="0 0 20 14" fill="none" xmlns="http://www.w3.org/2000/svg">
<path d="M11.1538 12.5263L11.1538 4.42105C11.1538 3.24852 11.6401 2.124 12.5057 1.29489C13.3712 0.465787 14.5452 -1.43047e-06 15.7692 -1.53748e-06C15.9732 -1.55532e-06 16.1689 0.0776294 16.3132 0.215814C16.4574 0.353998 16.5385 0.541417 16.5385 0.736841C16.5385 0.932263 16.4574 1.11968 16.3132 1.25787C16.1689 1.39605 15.9732 1.47368 15.7692 1.47368C14.954 1.47611 14.1728 1.78742 13.5963 2.33963C13.0198 2.89184 12.6948 3.64011 12.6923 4.42105L12.6923 5.15789L18.4615 5.15789C18.8696 5.15789 19.2609 5.31316 19.5494 5.58953C19.8379 5.8659 20 6.24073 20 6.63158L20 12.5263C20 12.9172 19.8379 13.292 19.5494 13.5684C19.2609 13.8447 18.8696 14 18.4615 14L12.6923 14C12.2843 14 11.893 13.8447 11.6045 13.5684C11.3159 13.292 11.1538 12.9172 11.1538 12.5263ZM1.53846 14L7.30769 14C7.71572 14 8.10703 13.8447 8.39555 13.5684C8.68407 13.292 8.84615 12.9172 8.84615 12.5263L8.84615 6.63158C8.84615 6.24073 8.68407 5.8659 8.39555 5.58953C8.10703 5.31316 7.71572 5.15789 7.30769 5.15789L1.53846 5.15789L1.53846 4.42105C1.541 3.64011 1.86599 2.89185 2.44247 2.33963C3.01896 1.78742 3.80011 1.47611 4.61538 1.47368C4.8194 1.47368 5.01505 1.39605 5.15931 1.25787C5.30357 1.11968 5.38461 0.932264 5.38461 0.736842C5.38461 0.541418 5.30357 0.353999 5.15931 0.215815C5.01505 0.0776304 4.8194 -5.80218e-07 4.61538 -5.62383e-07C3.39131 -4.55371e-07 2.21737 0.465788 1.35182 1.2949C0.486262 2.124 9.67424e-07 3.24852 1.06993e-06 4.42105L1.77852e-06 12.5263C1.81268e-06 12.9172 0.162088 13.292 0.450607 13.5684C0.739124 13.8447 1.13044 14 1.53846 14Z" fill="#F91942"/>
</svg>
