<svg width="29" height="25" viewBox="0 0 29 25" fill="none" xmlns="http://www.w3.org/2000/svg">
<path d="M28.1792 23.3333H26.8113V0.833333C26.8113 0.61232 26.7248 0.400358 26.5709 0.244078C26.417 0.0877973 26.2082 0 25.9906 0H18.3302C18.1125 0 17.9037 0.0877973 17.7498 0.244078C17.5959 0.400358 17.5094 0.61232 17.5094 0.833333V6.66667H10.6698C10.4521 6.66667 10.2434 6.75446 10.0895 6.91075C9.93553 7.06703 9.84906 7.27899 9.84906 7.5V13.3333H3.00943C2.79176 13.3333 2.58299 13.4211 2.42907 13.5774C2.27515 13.7337 2.18868 13.9457 2.18868 14.1667V23.3333H0.820755C0.603077 23.3333 0.394315 23.4211 0.240393 23.5774C0.086472 23.7337 0 23.9457 0 24.1667C0 24.3877 0.086472 24.5996 0.240393 24.7559C0.394315 24.9122 0.603077 25 0.820755 25H28.1792C28.3969 25 28.6057 24.9122 28.7596 24.7559C28.9135 24.5996 29 24.3877 29 24.1667C29 23.9457 28.9135 23.7337 28.7596 23.5774C28.6057 23.4211 28.3969 23.3333 28.1792 23.3333ZM11.4906 8.33333H17.5094V23.3333H11.4906V8.33333ZM3.83019 15H9.84906V23.3333H3.83019V15ZM19.1509 23.3333V1.66667H25.1698V23.3333H19.1509Z" fill="#F91942"/>
</svg>
