<svg width="50" height="50" viewBox="0 0 50 50" fill="none" xmlns="http://www.w3.org/2000/svg">
<circle cx="25" cy="25" r="25" fill="#7C509A"/>
<path d="M32.8174 13.1824C28.053 12.2725 23.1054 12.2725 18.341 13.1824C16.2336 13.6373 13.5766 16.1849 13.1185 18.1866C12.2938 22.099 12.2938 26.1023 13.1185 30.0147C13.6682 32.0164 16.3253 34.564 18.341 35.0189C18.4326 35.0189 18.5242 35.1099 18.5242 35.2009V40.933C18.5242 41.206 18.8907 41.3879 19.074 41.115L21.8226 38.2944C21.8226 38.2944 24.0216 36.0198 24.3881 35.6558C24.3881 35.6558 24.4797 35.5649 24.5713 35.5649C27.32 35.6558 30.1603 35.3829 32.909 34.928C35.0164 34.473 37.6734 31.9254 38.1315 29.9237C38.9562 26.0114 38.9562 22.008 38.1315 18.0956C37.5818 16.1849 34.9247 13.6373 32.8174 13.1824ZM32.909 30.2877C32.4509 31.1975 31.9012 31.9254 30.9849 32.3804C30.7101 32.4713 30.4352 32.5623 30.1603 32.6533C29.7938 32.5623 29.519 32.4713 29.2441 32.3804C26.3122 31.1975 23.5635 29.5598 21.3645 27.1942C20.1734 25.8294 19.1656 24.2826 18.341 22.6449C17.9745 21.826 17.608 21.0981 17.3331 20.2793C17.0582 19.5514 17.5164 18.8235 17.9745 18.2776C18.4326 17.7317 18.9823 17.3677 19.6237 17.0948C20.0818 16.8218 20.5399 17.0038 20.9064 17.3677C21.6394 18.2776 22.3724 19.1874 22.9221 20.1883C23.2886 20.8252 23.197 21.5531 22.5556 22.008C22.3724 22.099 22.2808 22.19 22.0975 22.3719C22.0059 22.4629 21.8226 22.5539 21.731 22.7359C21.5478 23.0088 21.5478 23.2818 21.6394 23.5548C22.3724 25.6474 23.7467 27.2852 25.8541 28.195C26.2205 28.377 26.4954 28.468 26.9535 28.468C27.5949 28.377 27.8698 27.6491 28.3279 27.2852C28.786 26.9212 29.3357 26.9212 29.8855 27.1942C30.3436 27.4671 30.8017 27.8311 31.3514 28.195C31.8096 28.559 32.2677 28.8319 32.7258 29.1959C33.0007 29.3778 33.0923 29.8328 32.909 30.2877ZM29.0609 23.4638C28.8776 23.4638 28.9692 23.4638 29.0609 23.4638C28.6944 23.4638 28.6027 23.2818 28.5111 23.0088C28.5111 22.8269 28.5111 22.5539 28.4195 22.3719C28.3279 22.008 28.1446 21.6441 27.7781 21.3711C27.5949 21.2801 27.4116 21.1891 27.2284 21.0981C26.9535 21.0072 26.7703 21.0072 26.4954 21.0072C26.2206 20.9162 26.1289 20.7342 26.1289 20.4612C26.1289 20.2793 26.4038 20.0973 26.587 20.0973C28.053 20.1883 29.1525 21.0072 29.3357 22.7359C29.3357 22.8269 29.3357 23.0088 29.3357 23.0998C29.3357 23.2818 29.2441 23.4638 29.0609 23.4638ZM28.1446 19.4604C27.6865 19.2784 27.2284 19.0965 26.6787 19.0055C26.4954 19.0055 26.2206 18.9145 26.0373 18.9145C25.7624 18.9145 25.5792 18.7325 25.6708 18.4596C25.6708 18.1866 25.8541 18.0046 26.1289 18.0956C27.0452 18.1866 27.8698 18.3686 28.6944 18.7325C30.3436 19.5514 31.2598 20.9162 31.5347 22.7359C31.5347 22.8269 31.5347 22.9179 31.5347 23.0088C31.5347 23.1908 31.5347 23.3728 31.5347 23.6457C31.5347 23.7367 31.5347 23.8277 31.5347 23.9187C31.4431 24.2826 30.8017 24.3736 30.7101 23.9187C30.7101 23.8277 30.6185 23.6457 30.6185 23.5548C30.6185 22.7359 30.4352 21.917 30.0687 21.1891C29.519 20.3703 28.8776 19.8243 28.1446 19.4604ZM33.0923 24.9195C32.8174 24.9195 32.6342 24.6466 32.6342 24.3736C32.6342 23.8277 32.5425 23.2818 32.4509 22.7359C32.0844 19.8243 29.7022 17.4587 26.8619 17.0038C26.4038 16.9128 25.9457 16.9128 25.5792 16.8218C25.3043 16.8218 24.9378 16.8218 24.8462 16.4579C24.7546 16.1849 25.0294 15.912 25.3043 15.912C25.3959 15.912 25.4876 15.912 25.4876 15.912C29.2441 16.0029 25.6708 15.912 25.4876 15.912C29.3357 16.0029 32.5425 18.5505 33.1839 22.3719C33.2755 23.0088 33.3671 23.6457 33.3671 24.3736C33.5504 24.6466 33.3671 24.9195 33.0923 24.9195Z" fill="white"/>
</svg>
