<svg width="22" height="22" viewBox="0 0 22 22" fill="none" xmlns="http://www.w3.org/2000/svg">
<path d="M17.2627 8.37377C17.6532 7.98325 17.6532 7.35008 17.2627 6.95956C16.8721 6.56904 16.239 6.56904 15.8484 6.95956L17.2627 8.37377ZM8.77776 15.4445L8.07065 16.1516C8.46118 16.5421 9.09434 16.5421 9.48486 16.1516L8.77776 15.4445ZM6.15148 11.404C5.76096 11.0135 5.12779 11.0135 4.73727 11.404C4.34674 11.7945 4.34675 12.4277 4.73727 12.8182L6.15148 11.404ZM15.8484 6.95956L8.07065 14.7374L9.48486 16.1516L17.2627 8.37377L15.8484 6.95956ZM4.73727 12.8182L8.07065 16.1516L9.48486 14.7374L6.15148 11.404L4.73727 12.8182ZM20 11C20 15.9706 15.9706 20 11 20V22C17.0751 22 22 17.0751 22 11H20ZM11 20C6.02944 20 2 15.9706 2 11H0C0 17.0751 4.92487 22 11 22V20ZM2 11C2 6.02944 6.02944 2 11 2V0C4.92487 0 0 4.92487 0 11H2ZM11 2C15.9706 2 20 6.02944 20 11H22C22 4.92487 17.0751 0 11 0V2Z" fill="white"/>
</svg>
