<svg width="16" height="17" viewBox="0 0 16 17" fill="none" xmlns="http://www.w3.org/2000/svg">
<path d="M16 4.73957C16.0005 5.2992 15.8902 5.85338 15.6756 6.37012C15.4609 6.88686 15.1461 7.35593 14.7494 7.75026L12.4363 10.0656C11.6393 10.8624 10.5589 11.31 9.4324 11.31C8.30593 11.31 7.22552 10.8624 6.42856 10.0656C6.36291 10.006 6.31004 9.93376 6.27314 9.85315C6.23625 9.77255 6.2161 9.68528 6.21392 9.59665C6.21174 9.50801 6.22757 9.41986 6.26046 9.33753C6.29335 9.25521 6.34261 9.18043 6.40524 9.11774C6.46788 9.05504 6.54259 9.00574 6.62484 8.97282C6.70709 8.9399 6.79516 8.92406 6.88371 8.92624C6.97227 8.92842 7.05945 8.94859 7.13999 8.98552C7.22052 9.02245 7.29271 9.07537 7.35219 9.14107C7.90504 9.69113 8.65289 9.99987 9.4324 9.99987C10.2119 9.99987 10.9598 9.69113 11.5126 9.14107L13.8258 6.82579C14.1086 6.55454 14.3346 6.2295 14.4903 5.86972C14.646 5.50994 14.7283 5.12266 14.7325 4.7306C14.7367 4.33853 14.6627 3.94958 14.5147 3.58654C14.3667 3.2235 14.1478 2.89369 13.8708 2.61644C13.5939 2.3392 13.2643 2.1201 12.9016 1.97199C12.5389 1.82389 12.1503 1.74977 11.7586 1.75397C11.3669 1.75817 10.98 1.84061 10.6205 1.99646C10.2611 2.1523 9.93635 2.37842 9.66536 2.66154L8.04696 4.28142C7.92257 4.39423 7.7596 4.45485 7.5918 4.45071C7.424 4.44657 7.26421 4.37801 7.14552 4.25921C7.02683 4.14041 6.95833 3.98048 6.95419 3.81252C6.95006 3.64456 7.01062 3.48145 7.12332 3.35695L8.74172 1.73706C9.33718 1.14555 10.0939 0.743252 10.917 0.580665C11.7401 0.418077 12.5928 0.502442 13.3681 0.823172C14.1434 1.1439 14.8068 1.68671 15.2751 2.38346C15.7433 3.08022 15.9955 3.89988 16 4.73957ZM8.04696 12.6099L6.42856 14.2298C5.87291 14.7626 5.13085 15.0564 4.3614 15.0481C3.59195 15.0399 2.85634 14.7303 2.31223 14.1856C1.76812 13.641 1.45879 12.9048 1.45055 12.1346C1.4423 11.3645 1.7358 10.6217 2.26813 10.0656L4.58129 7.75026C5.13414 7.20021 5.88199 6.89147 6.66151 6.89147C7.44103 6.89147 8.18887 7.20021 8.74172 7.75026C8.86611 7.86307 9.02908 7.92369 9.19688 7.91955C9.36468 7.91541 9.52447 7.84685 9.64316 7.72805C9.76185 7.60925 9.83035 7.44932 9.83449 7.28136C9.83862 7.1134 9.77806 6.95029 9.66536 6.82579C8.86839 6.02894 7.78799 5.58135 6.66151 5.58135C5.53503 5.58135 4.45462 6.02894 3.65766 6.82579L1.34449 9.14107C0.92864 9.53101 0.595368 10.0007 0.364494 10.5221C0.133619 11.0435 0.00985666 11.6061 0.000565123 12.1764C-0.00872642 12.7467 0.0966428 13.313 0.310407 13.8417C0.524172 14.3704 0.841967 14.8507 1.2449 15.254C1.64783 15.6573 2.12766 15.9753 2.65588 16.1893C3.18409 16.4033 3.74989 16.5087 4.31965 16.4994C4.8894 16.4901 5.45147 16.3663 5.97243 16.1352C6.49339 15.9041 6.96261 15.5705 7.35219 15.1543L8.97059 13.5344C9.08329 13.4099 9.14385 13.2468 9.13972 13.0788C9.13559 12.9109 9.06708 12.7509 8.94839 12.6321C8.8297 12.5133 8.66992 12.4448 8.50211 12.4406C8.33431 12.4365 8.17134 12.4971 8.04696 12.6099Z" fill="#8A8A8A"/>
</svg>
