<svg width="20" height="21" viewBox="0 0 20 21" fill="none" xmlns="http://www.w3.org/2000/svg">
<path d="M10.75 15.49C10.75 15.0758 10.4142 14.74 10 14.74C9.58579 14.74 9.25 15.0758 9.25 15.49H10.75ZM9.25 15.5C9.25 15.9142 9.58579 16.25 10 16.25C10.4142 16.25 10.75 15.9142 10.75 15.5H9.25ZM9.25 12.5C9.25 12.9142 9.58579 13.25 10 13.25C10.4142 13.25 10.75 12.9142 10.75 12.5H9.25ZM6.27587 7.48654C6.16802 7.88647 6.40479 8.2981 6.80472 8.40595C7.20465 8.5138 7.61628 8.27702 7.72413 7.8771L6.27587 7.48654ZM9.25 15.49V15.5H10.75V15.49H9.25ZM12.25 8.40909C12.25 9.00706 11.8779 9.32322 11.0775 9.86897C10.4012 10.3301 9.25 11.0419 9.25 12.5H10.75C10.75 11.9581 11.0988 11.6699 11.9225 11.1083C12.6221 10.6313 13.75 9.90203 13.75 8.40909H12.25ZM10 6.25C11.2867 6.25 12.25 7.23398 12.25 8.40909H13.75C13.75 6.37091 12.0801 4.75 10 4.75V6.25ZM7.72413 7.8771C7.96738 6.97508 8.89173 6.25 10 6.25V4.75C8.26777 4.75 6.70934 5.87913 6.27587 7.48654L7.72413 7.8771ZM18.25 10.5C18.25 15.0563 14.5563 18.75 10 18.75V20.25C15.3848 20.25 19.75 15.8848 19.75 10.5H18.25ZM10 18.75C5.44365 18.75 1.75 15.0563 1.75 10.5H0.25C0.25 15.8848 4.61522 20.25 10 20.25V18.75ZM1.75 10.5C1.75 5.94365 5.44365 2.25 10 2.25V0.75C4.61522 0.75 0.25 5.11522 0.25 10.5H1.75ZM10 2.25C14.5563 2.25 18.25 5.94365 18.25 10.5H19.75C19.75 5.11522 15.3848 0.75 10 0.75V2.25Z" fill="#05A60B"/>
</svg>
