<svg width="70" height="62" viewBox="0 0 70 62" fill="none" xmlns="http://www.w3.org/2000/svg">
<path d="M63 8.45455H52.535L47.355 0.634091C47.2288 0.44124 47.0575 0.282551 46.8561 0.171983C46.6547 0.0614141 46.4294 0.00235496 46.2 0H23.8C23.5706 0.00235496 23.3453 0.0614141 23.1439 0.171983C22.9425 0.282551 22.7712 0.44124 22.645 0.634091L17.465 8.45455H7C5.14632 8.4638 3.37118 9.20907 2.06042 10.5283C0.749651 11.8476 0.00919957 13.6343 0 15.5V54.9545C0.00919957 56.8203 0.749651 58.6069 2.06042 59.9262C3.37118 61.2455 5.14632 61.9907 7 62H63C64.8537 61.9907 66.6288 61.2455 67.9396 59.9262C69.2504 58.6069 69.9908 56.8203 70 54.9545V15.5C69.9908 13.6343 69.2504 11.8476 67.9396 10.5283C66.6288 9.20907 64.8537 8.4638 63 8.45455ZM67.2 54.9545C67.2 56.0757 66.7575 57.1509 65.9698 57.9437C65.1822 58.7364 64.1139 59.1818 63 59.1818H7C5.88609 59.1818 4.8178 58.7364 4.03015 57.9437C3.2425 57.1509 2.8 56.0757 2.8 54.9545V15.5C2.8 14.3789 3.2425 13.3036 4.03015 12.5109C4.8178 11.7181 5.88609 11.2727 7 11.2727H18.2C18.4294 11.2704 18.6547 11.2113 18.8561 11.1007C19.0575 10.9902 19.2288 10.8315 19.355 10.6386L24.535 2.81818H45.465L50.645 10.6386C50.7712 10.8315 50.9425 10.9902 51.1439 11.1007C51.3453 11.2113 51.5706 11.2704 51.8 11.2727H63C64.1139 11.2727 65.1822 11.7181 65.9698 12.5109C66.7575 13.3036 67.2 14.3789 67.2 15.5V54.9545ZM35 19.7273C32.2311 19.7273 29.5243 20.5537 27.222 22.102C24.9197 23.6503 23.1253 25.851 22.0657 28.4258C21.0061 31.0006 20.7288 33.8338 21.269 36.5672C21.8092 39.3006 23.1426 41.8113 25.1005 43.782C27.0584 45.7526 29.553 47.0946 32.2687 47.6383C34.9845 48.182 37.7994 47.903 40.3576 46.8365C42.9157 45.77 45.1022 43.9639 46.6406 41.6467C48.1789 39.3294 49 36.6051 49 33.8182C49 30.081 47.525 26.497 44.8995 23.8544C42.274 21.2118 38.713 19.7273 35 19.7273ZM35 45.0909C32.7848 45.0909 30.6194 44.4298 28.7776 43.1911C26.9358 41.9524 25.5002 40.1919 24.6525 38.1321C23.8048 36.0722 23.583 33.8057 24.0152 31.619C24.4474 29.4323 25.5141 27.4237 27.0804 25.8472C28.6468 24.2706 30.6424 23.197 32.815 22.7621C34.9876 22.3271 37.2395 22.5503 39.2861 23.4035C41.3326 24.2567 43.0818 25.7016 44.3125 27.5554C45.5431 29.4092 46.2 31.5886 46.2 33.8182C46.1908 36.805 45.0078 39.6669 42.9094 41.7789C40.811 43.891 37.9676 45.0816 35 45.0909Z" fill="#3A3A3A"/>
</svg>
