<svg width="30" height="26" viewBox="0 0 30 26" fill="none" xmlns="http://www.w3.org/2000/svg">
<path d="M26.5385 3.3913H22.5397L20.5745 0.503326C20.4691 0.348499 20.3264 0.22155 20.1589 0.133748C19.9915 0.0459448 19.8045 3.18017e-06 19.6145 0H10.3837C10.1938 1.86888e-05 10.0068 0.0459821 9.83932 0.13381C9.67185 0.221638 9.5291 0.348614 9.42375 0.503467L7.45861 3.3913H3.46154C2.5438 3.39231 1.66394 3.74994 1.015 4.38571C0.366059 5.02148 0.00103072 5.88349 0 6.78261V22.6087C0.00103072 23.5078 0.366059 24.3698 1.015 25.0056C1.66394 25.6414 2.5438 25.999 3.46154 26H26.5385C27.4562 25.999 28.3361 25.6414 28.985 25.0056C29.6339 24.3698 29.999 23.5078 30 22.6087V6.78261C29.999 5.88349 29.6339 5.02148 28.985 4.38571C28.3361 3.74994 27.4562 3.39231 26.5385 3.3913ZM27.6923 22.6087C27.6919 22.9084 27.5702 23.1957 27.3539 23.4076C27.1376 23.6195 26.8444 23.7388 26.5385 23.7391H3.46154C3.15564 23.7388 2.86237 23.6195 2.64607 23.4076C2.42976 23.1957 2.30807 22.9084 2.30769 22.6087V6.78261C2.30807 6.48291 2.42976 6.1956 2.64607 5.98368C2.86237 5.77177 3.15564 5.65255 3.46154 5.65217H8.07606C8.26601 5.65215 8.45302 5.60619 8.62049 5.51836C8.78796 5.43054 8.93071 5.30356 9.03606 5.14871L11.0012 2.26087H18.9971L20.9622 5.14885C21.0676 5.30368 21.2103 5.43062 21.3778 5.51843C21.5453 5.60623 21.7323 5.65217 21.9222 5.65217H26.5385C26.8444 5.65255 27.1376 5.77177 27.3539 5.98368C27.5702 6.1956 27.6919 6.48291 27.6923 6.78261V22.6087Z" fill="#CBCBCB"/>
<path d="M11.4728 8.92892C12.5164 8.24813 13.7433 7.88477 14.9985 7.88477C16.681 7.88663 18.2941 8.53998 19.4838 9.70149C20.6735 10.863 21.3427 12.4378 21.3447 14.0804C21.3447 15.3058 20.9725 16.5037 20.2751 17.5225C19.5778 18.5414 18.5867 19.3355 17.4271 19.8044C16.2675 20.2734 14.9915 20.3961 13.7604 20.157C12.5294 19.918 11.3986 19.3279 10.5111 18.4614C9.62357 17.5949 9.01915 16.491 8.77429 15.2891C8.52942 14.0873 8.65509 12.8415 9.13542 11.7094C9.61574 10.5773 10.4291 9.60971 11.4728 8.92892Z" fill="#CBCBCB"/>
<path d="M15.0477 9.89709C14.8217 9.89714 14.605 9.98695 14.4451 10.1468C14.2853 10.3066 14.1955 10.5234 14.1955 10.7494L14.1955 13.5129L11.4319 13.5129C11.2058 13.5129 10.9891 13.6027 10.8292 13.7626C10.6694 13.9224 10.5796 14.1392 10.5796 14.3652C10.5796 14.5913 10.6694 14.8081 10.8292 14.9679C10.9891 15.1277 11.2058 15.2175 11.4319 15.2175L14.1955 15.2175L14.1955 17.9811C14.1955 18.2071 14.2852 18.4239 14.4451 18.5838C14.6049 18.7436 14.8217 18.8334 15.0477 18.8334C15.2738 18.8334 15.4906 18.7436 15.6504 18.5838C15.8102 18.4239 15.9 18.2071 15.9 17.9811L15.9 15.2175L18.6636 15.2175C18.7755 15.2175 18.8864 15.1955 18.9898 15.1527C19.0932 15.1098 19.1871 15.047 19.2663 14.9679C19.3454 14.8888 19.4082 14.7948 19.451 14.6914C19.4938 14.588 19.5159 14.4772 19.5159 14.3652C19.5159 14.2533 19.4938 14.1425 19.451 14.0391C19.4082 13.9357 19.3454 13.8417 19.2663 13.7626C19.1871 13.6834 19.0932 13.6207 18.9898 13.5778C18.8864 13.535 18.7755 13.513 18.6636 13.513L15.9 13.5129L15.9 10.7494C15.9 10.6375 15.878 10.5266 15.8352 10.4232C15.7923 10.3198 15.7295 10.2259 15.6504 10.1467C15.5713 10.0676 15.4773 10.0048 15.3739 9.96196C15.2705 9.91913 15.1597 9.89709 15.0477 9.89709Z" fill="#FAFAFA"/>
</svg>
