<svg width="238" height="43" viewBox="0 0 238 43" fill="none" xmlns="http://www.w3.org/2000/svg">
<path d="M237.495 2.06726C237.533 1.79362 237.341 1.54169 237.067 1.50454L232.608 0.89924C232.335 0.862096 232.083 1.05381 232.045 1.32744C232.008 1.60107 232.2 1.85301 232.474 1.89015L236.437 2.4282L235.899 6.39185C235.862 6.66548 236.054 6.91742 236.327 6.95456C236.601 6.9917 236.853 6.79999 236.89 6.52636L237.495 2.06726ZM116.047 41.9991L116.046 42.4991L116.047 41.9991ZM0.697217 6.56456C1.25146 6.98632 1.80328 7.40335 2.35278 7.81572L2.953 7.01589C2.40532 6.60488 1.85528 6.1892 1.30278 5.76877L0.697217 6.56456ZM5.66237 10.2631C6.78674 11.0819 7.90199 11.881 9.00907 12.6607L9.5849 11.8432C8.48229 11.0666 7.37132 10.2706 6.25107 9.45473L5.66237 10.2631ZM12.3961 15.0031C13.5472 15.7842 14.6903 16.5443 15.8265 17.2839L16.372 16.4458C15.2414 15.7098 14.1036 14.9533 12.9576 14.1756L12.3961 15.0031ZM19.3028 19.4962C20.4836 20.2303 21.658 20.9422 22.8273 21.6327L23.3358 20.7716C22.1732 20.0851 21.0053 19.3771 19.8307 18.6469L19.3028 19.4962ZM26.4017 23.6854C27.614 24.3617 28.8221 25.0152 30.0274 25.6466L30.4914 24.7608C29.2941 24.1336 28.0937 23.4842 26.8889 22.8121L26.4017 23.6854ZM33.705 27.5087C34.9491 28.1167 36.1918 28.7018 37.4346 29.2646L37.8471 28.3536C36.6133 27.7949 35.3795 27.2141 34.1441 26.6103L33.705 27.5087ZM41.2175 30.9088C42.4931 31.4401 43.7705 31.9488 45.0516 32.4359L45.4069 31.5011C44.1357 31.0178 42.868 30.513 41.6019 29.9857L41.2175 30.9088ZM48.9308 33.8406C50.232 34.2886 51.5385 34.7152 52.8522 35.1214L53.1476 34.1661C51.8439 33.763 50.5475 33.3396 49.2564 32.8951L48.9308 33.8406ZM56.812 36.2785C58.1342 36.6426 59.4651 36.9874 60.8065 37.3136L61.0429 36.342C59.711 36.0181 58.3899 35.6758 57.0776 35.3144L56.812 36.2785ZM64.8265 38.2296C66.1618 38.5138 67.5089 38.7811 68.8692 39.0321L69.0507 38.0487C67.6991 37.7993 66.3609 37.5338 65.0347 37.2515L64.8265 38.2296ZM72.9314 39.728C74.2761 39.941 75.6349 40.1396 77.0092 40.3244L77.1425 39.3333C75.7757 39.1495 74.4246 38.9521 73.0878 38.7403L72.9314 39.728ZM81.0992 40.8293C82.4494 40.9816 83.8153 41.1218 85.1981 41.2507L85.2909 40.255C83.9142 40.1267 82.5548 39.9871 81.2112 39.8356L81.0992 40.8293ZM89.3032 41.5965C90.6559 41.6988 92.0252 41.7913 93.4122 41.8746L93.4722 40.8764C92.09 40.7934 90.7259 40.7013 89.3786 40.5994L89.3032 41.5965ZM97.5234 42.0924C98.8767 42.1549 100.247 42.2095 101.636 42.2567L101.669 41.2573C100.285 41.2102 98.9186 41.1557 97.5696 41.0934L97.5234 42.0924ZM105.748 42.3741C107.101 42.4056 108.471 42.4309 109.86 42.4503L109.874 41.4504C108.488 41.4311 107.121 41.4058 105.771 41.3744L105.748 42.3741ZM113.972 42.4908C114.659 42.4948 115.35 42.4976 116.046 42.4991L116.048 41.4991C115.354 41.4976 114.664 41.4948 113.978 41.4908L113.972 42.4908ZM116.046 42.4991C116.733 42.5007 117.416 42.5002 118.096 42.4977L118.092 41.4977C117.414 41.5002 116.733 41.5007 116.048 41.4991L116.046 42.4991ZM122.168 42.4576C123.538 42.4355 124.895 42.4046 126.239 42.3649L126.21 41.3653C124.87 41.4049 123.518 41.4357 122.152 41.4577L122.168 42.4576ZM130.309 42.2153C131.679 42.1549 133.034 42.0846 134.378 42.0044L134.318 41.0062C132.98 41.0861 131.629 41.1561 130.265 41.2162L130.309 42.2153ZM138.443 41.7278C139.81 41.6231 141.164 41.5075 142.505 41.3806L142.411 40.385C141.076 40.5114 139.728 40.6265 138.367 40.7307L138.443 41.7278ZM146.562 40.9583C147.923 40.8032 149.272 40.636 150.609 40.4562L150.476 39.4651C149.145 39.644 147.803 39.8104 146.449 39.9647L146.562 40.9583ZM154.645 39.87C155.998 39.6586 157.339 39.4337 158.669 39.1951L158.492 38.2108C157.169 38.4481 155.836 38.6717 154.491 38.8819L154.645 39.87ZM162.677 38.4276C164.016 38.1546 165.345 37.8669 166.665 37.5642L166.442 36.5895C165.13 36.8904 163.809 37.1764 162.477 37.4477L162.677 38.4276ZM170.631 36.602C171.953 36.2636 173.266 35.9094 174.572 35.539L174.299 34.577C173.002 34.945 171.697 35.297 170.383 35.6333L170.631 36.602ZM178.483 34.3738C179.782 33.968 181.075 33.5455 182.361 33.106L182.038 32.1597C180.76 32.5963 179.476 33.0161 178.185 33.4193L178.483 34.3738ZM186.205 31.7359C187.479 31.2629 188.747 30.7726 190.011 30.2648L189.639 29.3369C188.383 29.8414 187.122 30.3285 185.857 30.7985L186.205 31.7359ZM193.778 28.695C195.022 28.1573 196.264 27.6021 197.503 27.0291L197.083 26.1215C195.852 26.6909 194.618 27.2427 193.381 27.777L193.778 28.695ZM201.185 25.271C202.399 24.6731 203.611 24.0577 204.823 23.4246L204.36 22.5383C203.155 23.1678 201.95 23.7795 200.743 24.3739L201.185 25.271ZM208.418 21.4946C209.6 20.8423 210.783 20.1728 211.968 19.4859L211.466 18.6209C210.288 19.3042 209.111 19.9702 207.935 20.619L208.418 21.4946ZM215.474 17.4034C216.627 16.7031 217.781 15.9861 218.938 15.2523L218.402 14.4079C217.251 15.1383 216.102 15.8519 214.955 16.5488L215.474 17.4034ZM222.36 13.0375C223.484 12.2957 224.612 11.5379 225.742 10.7638L225.178 9.93861C224.051 10.7096 222.929 11.4642 221.809 12.2029L222.36 13.0375ZM229.086 8.43588C230.185 7.65854 231.287 6.86593 232.394 6.05785L231.805 5.25013C230.701 6.05543 229.603 6.84519 228.509 7.61963L229.086 8.43588ZM235.668 3.63367C236.212 3.22547 236.757 2.81355 237.303 2.3979L236.697 1.6021C236.153 2.01648 235.609 2.4271 235.068 2.834L235.668 3.63367Z" fill="black"/>
</svg>
