<svg width="234" height="43" viewBox="0 0 234 43" fill="none" xmlns="http://www.w3.org/2000/svg">
<path d="M233.496 40.9342C233.532 41.208 233.339 41.4593 233.066 41.4957L228.605 42.0874C228.331 42.1238 228.08 41.9313 228.043 41.6575C228.007 41.3838 228.2 41.1324 228.473 41.0961L232.439 40.5701L231.913 36.6048C231.876 36.3311 232.069 36.0797 232.342 36.0434C232.616 36.0071 232.868 36.1996 232.904 36.4733L233.496 40.9342ZM114.054 1.00082L114.056 1.50082L114.054 1.00082ZM0.696012 37.2697C1.2412 36.8522 1.784 36.4391 2.32449 36.0305L2.92761 36.8281C2.38877 37.2355 1.8476 37.6474 1.30399 38.0636L0.696012 37.2697ZM5.57866 33.6027C6.68337 32.79 7.77906 31.9958 8.86666 31.2198L9.44747 32.0339C8.36398 32.8069 7.27221 33.5982 6.17126 34.4082L5.57866 33.6027ZM12.1917 28.8869C13.321 28.1084 14.4424 27.3495 15.5569 26.61L16.1098 27.4433C15.0004 28.1794 13.8839 28.9349 12.7593 29.7102L12.1917 28.8869ZM18.9649 24.3957C20.122 23.6601 21.2727 22.9453 22.4182 22.2509L22.9366 23.1061C21.7973 23.7967 20.6526 24.5077 19.5014 25.2396L18.9649 24.3957ZM25.919 20.1833C27.1059 19.501 28.2887 18.8403 29.4687 18.2006L29.9453 19.0797C28.7728 19.7153 27.5973 20.372 26.4174 21.0503L25.919 20.1833ZM33.0687 16.3103C34.2865 15.6916 35.5029 15.095 36.7194 14.5197L37.1469 15.4237C35.9391 15.9949 34.7312 16.5874 33.5216 17.2018L33.0687 16.3103ZM40.4219 12.8349C41.6712 12.2888 42.9223 11.7644 44.1768 11.2612L44.5491 12.1893C43.3041 12.6887 42.0625 13.2091 40.8225 13.7512L40.4219 12.8349ZM47.9775 9.80502C49.253 9.33911 50.5337 8.89404 51.8214 8.4691L52.1348 9.41873C50.857 9.84039 49.5862 10.282 48.3206 10.7443L47.9775 9.80502ZM55.7056 7.25443C57.0033 6.87068 58.3097 6.50619 59.6263 6.16026L59.8804 7.12744C58.5735 7.47081 57.277 7.83255 55.9891 8.21338L55.7056 7.25443ZM63.5764 5.18498C64.889 4.88121 66.2133 4.59462 67.5506 4.32452L67.7486 5.30473C66.4202 5.57301 65.1052 5.85762 63.8018 6.15923L63.5764 5.18498ZM71.5466 3.57304C72.8702 3.34204 74.2076 3.12595 75.5604 2.92414L75.708 3.9132C74.3631 4.11383 73.0338 4.32861 71.7185 4.55816L71.5466 3.57304ZM79.5884 2.37078C80.9187 2.20323 82.2645 2.04832 83.6271 1.90552L83.7313 2.90007C82.3754 3.04218 81.0365 3.19629 79.7133 3.36294L79.5884 2.37078ZM87.6735 1.52083C89.0071 1.40658 90.3573 1.30288 91.725 1.20925L91.7933 2.20692C90.431 2.30017 89.0866 2.40344 87.7588 2.51719L87.6735 1.52083ZM95.7797 0.963562C97.1145 0.892784 98.4663 0.830704 99.836 0.77692L99.8752 1.77615C98.5099 1.82976 97.1627 1.89163 95.8327 1.96216L95.7797 0.963562ZM103.893 0.642929C105.228 0.606838 106.58 0.577873 107.95 0.555687L107.966 1.55556C106.6 1.57769 105.251 1.60658 103.92 1.64256L103.893 0.642929ZM112.008 0.509819C112.685 0.505337 113.367 0.50235 114.053 0.500824L114.056 1.50082C113.371 1.50235 112.69 1.50533 112.014 1.5098L112.008 0.509819ZM114.053 0.500824C114.73 0.499317 115.403 0.499878 116.073 0.502529L116.069 1.50252C115.401 1.49988 114.73 1.49932 114.056 1.50082L114.053 0.500824ZM120.086 0.544178C121.436 0.567089 122.773 0.59898 124.097 0.640018L124.066 1.63954C122.747 1.59865 121.414 1.56687 120.069 1.54403L120.086 0.544178ZM128.107 0.794189C129.456 0.856354 130.792 0.928566 132.116 1.01101L132.053 2.00908C130.736 1.92698 129.405 1.85505 128.061 1.79313L128.107 0.794189ZM136.121 1.29496C137.467 1.40224 138.8 1.52072 140.121 1.6506L140.023 2.64581C138.708 2.51653 137.381 2.3986 136.041 2.2918L136.121 1.29496ZM144.116 2.08261C145.457 2.24101 146.785 2.41183 148.102 2.59527L147.964 3.58571C146.654 3.40324 145.333 3.23331 143.999 3.0757L144.116 2.08261ZM152.077 3.19297C153.408 3.40825 154.728 3.63715 156.038 3.8799L155.856 4.86315C154.554 4.62181 153.241 4.39423 151.917 4.18014L152.077 3.19297ZM159.982 4.65963C161.3 4.9367 162.608 5.2285 163.907 5.53531L163.677 6.50852C162.386 6.20364 161.086 5.91363 159.777 5.63824L159.982 4.65963ZM167.808 6.50945C169.108 6.85177 170.399 7.20981 171.683 7.58384L171.403 8.54391C170.128 8.17232 168.845 7.8166 167.553 7.47648L167.808 6.50945ZM175.528 8.75949C176.805 9.1686 178.076 9.5942 179.34 10.0365L179.01 10.9805C177.754 10.541 176.492 10.1183 175.223 9.71184L175.528 8.75949ZM183.118 11.4143C184.369 11.8895 185.615 12.3817 186.857 12.8912L186.478 13.8164C185.244 13.3102 184.006 12.8213 182.763 12.3491L183.118 11.4143ZM190.557 14.4648C191.779 15.0034 192.998 15.5591 194.215 16.1322L193.789 17.0368C192.58 16.4673 191.368 15.9151 190.154 15.38L190.557 14.4648ZM197.831 17.8894C199.023 18.4866 200.213 19.1008 201.403 19.7323L200.935 20.6156C199.751 19.9877 198.568 19.3771 197.383 18.7834L197.831 17.8894ZM204.932 21.6563C206.094 22.3062 207.255 22.9728 208.418 23.6564L207.911 24.5184C206.755 23.8384 205.599 23.1753 204.444 22.5289L204.932 21.6563ZM211.861 25.7277C212.993 26.4239 214.126 27.1363 215.262 27.8651L214.722 28.7068C213.592 27.9813 212.463 27.2722 211.337 26.5794L211.861 25.7277ZM218.623 30.0637C219.727 30.7999 220.834 31.5515 221.945 32.3189L221.377 33.1417C220.27 32.3773 219.168 31.6288 218.068 30.8957L218.623 30.0637ZM225.23 34.6261C226.309 35.3963 227.392 36.1813 228.48 36.9813L227.888 37.7869C226.804 36.9897 225.724 36.2074 224.649 35.4401L225.23 34.6261ZM231.697 39.3806C232.232 39.7845 232.767 40.1919 233.304 40.603L232.696 41.397C232.161 40.9871 231.627 40.5809 231.094 40.1783L231.697 39.3806Z" fill="black"/>
</svg>
