<svg width="36" height="26" viewBox="0 0 36 26" fill="none" xmlns="http://www.w3.org/2000/svg">
<path d="M1.78125 8.47656V18.3203C1.78125 18.6829 1.93764 19.0307 2.21601 19.2871C2.49439 19.5435 2.87194 19.6875 3.26562 19.6875H15.1406C15.3768 19.6875 15.6034 19.7739 15.7704 19.9278C15.9374 20.0816 16.0312 20.2903 16.0312 20.5078C16.0312 20.7254 15.9374 20.934 15.7704 21.0879C15.6034 21.2417 15.3768 21.3281 15.1406 21.3281H12.4688V24.0625H15.1406C15.3768 24.0625 15.6034 24.1489 15.7704 24.3028C15.9374 24.4566 16.0312 24.6653 16.0312 24.8828C16.0312 25.1004 15.9374 25.309 15.7704 25.4629C15.6034 25.6167 15.3768 25.7031 15.1406 25.7031H8.01562C7.77942 25.7031 7.55288 25.6167 7.38586 25.4629C7.21883 25.309 7.125 25.1004 7.125 24.8828C7.125 24.6653 7.21883 24.4566 7.38586 24.3028C7.55288 24.1489 7.77942 24.0625 8.01562 24.0625H10.6875V21.3281H3.26562C2.40073 21.3245 1.57237 21.0065 0.960794 20.4432C0.349215 19.8799 0.00390478 19.1169 0 18.3203V8.47656C0.00390478 7.67995 0.349215 6.91699 0.960794 6.35369C1.57237 5.7904 2.40073 5.47235 3.26562 5.46875H15.1406C15.3768 5.46875 15.6034 5.55518 15.7704 5.70901C15.9374 5.86285 16.0312 6.0715 16.0312 6.28906C16.0312 6.50662 15.9374 6.71527 15.7704 6.86911C15.6034 7.02295 15.3768 7.10938 15.1406 7.10938H3.26562C2.87194 7.10938 2.49439 7.25342 2.21601 7.50981C1.93764 7.76621 1.78125 8.11396 1.78125 8.47656ZM29.3906 4.375H24.6406C24.4044 4.375 24.1779 4.46143 24.0109 4.61526C23.8438 4.7691 23.75 4.97775 23.75 5.19531C23.75 5.41287 23.8438 5.62152 24.0109 5.77536C24.1779 5.9292 24.4044 6.01562 24.6406 6.01562H29.3906C29.6268 6.01562 29.8534 5.9292 30.0204 5.77536C30.1874 5.62152 30.2812 5.41287 30.2812 5.19531C30.2812 4.97775 30.1874 4.7691 30.0204 4.61526C29.8534 4.46143 29.6268 4.375 29.3906 4.375ZM29.3906 8.75H24.6406C24.4044 8.75 24.1779 8.83643 24.0109 8.99026C23.8438 9.1441 23.75 9.35275 23.75 9.57031C23.75 9.78787 23.8438 9.99652 24.0109 10.1504C24.1779 10.3042 24.4044 10.3906 24.6406 10.3906H29.3906C29.6268 10.3906 29.8534 10.3042 30.0204 10.1504C30.1874 9.99652 30.2812 9.78787 30.2812 9.57031C30.2812 9.35275 30.1874 9.1441 30.0204 8.99026C29.8534 8.83643 29.6268 8.75 29.3906 8.75ZM35.0312 1.91406V23.7891C35.0312 24.2967 34.8123 24.7836 34.4226 25.1425C34.0329 25.5015 33.5043 25.7031 32.9531 25.7031H21.0781C20.527 25.7031 19.9984 25.5015 19.6087 25.1425C19.2189 24.7836 19 24.2967 19 23.7891V1.91406C19 1.40642 19.2189 0.919572 19.6087 0.560616C19.9984 0.20166 20.527 0 21.0781 0H32.9531C33.5043 0 34.0329 0.20166 34.4226 0.560616C34.8123 0.919572 35.0312 1.40642 35.0312 1.91406ZM33.25 1.91406C33.25 1.84154 33.2187 1.77199 33.163 1.72071C33.1074 1.66943 33.0319 1.64062 32.9531 1.64062H21.0781C20.9994 1.64062 20.9239 1.66943 20.8682 1.72071C20.8125 1.77199 20.7812 1.84154 20.7812 1.91406V23.7891C20.7812 23.8616 20.8125 23.9311 20.8682 23.9824C20.9239 24.0337 20.9994 24.0625 21.0781 24.0625H32.9531C33.0319 24.0625 33.1074 24.0337 33.163 23.9824C33.2187 23.9311 33.25 23.8616 33.25 23.7891V1.91406ZM27.0156 18.5938C26.722 18.5938 26.4351 18.6739 26.1909 18.8242C25.9468 18.9744 25.7566 19.1879 25.6442 19.4377C25.5319 19.6876 25.5025 19.9625 25.5598 20.2277C25.617 20.4929 25.7584 20.7365 25.966 20.9277C26.1736 21.1189 26.4381 21.2491 26.726 21.3019C27.014 21.3546 27.3124 21.3275 27.5837 21.2241C27.8549 21.1206 28.0867 20.9453 28.2498 20.7205C28.4129 20.4957 28.5 20.2313 28.5 19.9609C28.5 19.5983 28.3436 19.2506 28.0652 18.9942C27.7869 18.7378 27.4093 18.5938 27.0156 18.5938Z" fill="white"/>
</svg>
