<svg width="40" height="42" viewBox="0 0 40 42" fill="none" xmlns="http://www.w3.org/2000/svg">
<path d="M34.1176 7.92453H21.1765V1.18868C21.1765 0.873422 21.0525 0.571077 20.8319 0.348156C20.6113 0.125236 20.312 0 20 0C19.688 0 19.3887 0.125236 19.1681 0.348156C18.9475 0.571077 18.8235 0.873422 18.8235 1.18868V7.92453H5.88235C4.32385 7.92975 2.83065 8.55761 1.72861 9.67108C0.626576 10.7846 0.00516922 12.2932 0 13.8679V36.0566C0.00516922 37.6313 0.626576 39.14 1.72861 40.2534C2.83065 41.3669 4.32385 41.9948 5.88235 42H34.1176C35.6762 41.9948 37.1694 41.3669 38.2714 40.2534C39.3734 39.14 39.9948 37.6313 40 36.0566V13.8679C39.9948 12.2932 39.3734 10.7846 38.2714 9.67108C37.1694 8.55761 35.6762 7.92975 34.1176 7.92453ZM37.6471 36.0566C37.6419 37.0008 37.2684 37.9048 36.6076 38.5724C35.9468 39.2401 35.0521 39.6174 34.1176 39.6226H5.88235C4.94788 39.6174 4.05315 39.2401 3.39237 38.5724C2.73159 37.9048 2.35809 37.0008 2.35294 36.0566V13.8679C2.35809 12.9238 2.73159 12.0197 3.39237 11.3521C4.05315 10.6845 4.94788 10.3071 5.88235 10.3019H34.1176C35.0521 10.3071 35.9468 10.6845 36.6076 11.3521C37.2684 12.0197 37.6419 12.9238 37.6471 13.8679V36.0566ZM27.0588 25.3585H12.9412C11.5891 25.3585 10.2924 25.9012 9.33632 26.8672C8.38025 27.8332 7.84314 29.1433 7.84314 30.5094C7.84314 31.8755 8.38025 33.1857 9.33632 34.1517C10.2924 35.1177 11.5891 35.6604 12.9412 35.6604H27.0588C28.4109 35.6604 29.7076 35.1177 30.6637 34.1517C31.6198 33.1857 32.1569 31.8755 32.1569 30.5094C32.1569 29.1433 31.6198 27.8332 30.6637 26.8672C29.7076 25.9012 28.4109 25.3585 27.0588 25.3585ZM22.7451 27.7358V33.283H17.2549V27.7358H22.7451ZM10.1961 30.5094C10.1961 29.7738 10.4853 29.0684 11.0001 28.5482C11.5149 28.0281 12.2131 27.7358 12.9412 27.7358H14.902V33.283H12.9412C12.2131 33.283 11.5149 32.9908 11.0001 32.4707C10.4853 31.9505 10.1961 31.245 10.1961 30.5094ZM27.0588 33.283H25.098V27.7358H27.0588C27.7869 27.7358 28.4851 28.0281 28.9999 28.5482C29.5147 29.0684 29.8039 29.7738 29.8039 30.5094C29.8039 31.245 29.5147 31.9505 28.9999 32.4707C28.4851 32.9908 27.7869 33.283 27.0588 33.283ZM9.41177 19.4151C9.41177 19.0233 9.52676 18.6402 9.74222 18.3144C9.95767 17.9886 10.2639 17.7347 10.6222 17.5848C10.9805 17.4348 11.3747 17.3956 11.7551 17.472C12.1354 17.5485 12.4848 17.7372 12.759 18.0142C13.0333 18.2913 13.22 18.6443 13.2957 19.0286C13.3713 19.4129 13.3325 19.8112 13.1841 20.1732C13.0357 20.5352 12.7844 20.8447 12.4619 21.0623C12.1395 21.28 11.7604 21.3962 11.3725 21.3962C10.8525 21.3962 10.3538 21.1875 9.98606 20.816C9.61835 20.4444 9.41177 19.9405 9.41177 19.4151ZM26.6667 19.4151C26.6667 19.0233 26.7817 18.6402 26.9971 18.3144C27.2126 17.9886 27.5188 17.7347 27.8771 17.5848C28.2354 17.4348 28.6296 17.3956 29.01 17.472C29.3903 17.5485 29.7397 17.7372 30.0139 18.0142C30.2882 18.2913 30.4749 18.6443 30.5506 19.0286C30.6262 19.4129 30.5874 19.8112 30.439 20.1732C30.2906 20.5352 30.0393 20.8447 29.7168 21.0623C29.3944 21.28 29.0153 21.3962 28.6275 21.3962C28.1074 21.3962 27.6087 21.1875 27.241 20.816C26.8732 20.4444 26.6667 19.9405 26.6667 19.4151Z" fill="white"/>
</svg>
