<svg width="40" height="40" viewBox="0 0 40 40" fill="none" xmlns="http://www.w3.org/2000/svg">
<path d="M38.0001 28.7255C39.2848 26.0719 39.9672 23.1675 39.9988 20.2197C40.0305 17.272 39.4104 14.3536 38.183 11.6731C36.9555 8.99265 35.151 6.61621 32.8984 4.71357C30.6457 2.81093 28.0005 1.42906 25.1517 0.666667H25.0536C23.4027 0.225705 21.7014 0.00159728 19.9927 2.23676e-08C15.2137 -0.000225901 10.5929 1.71101 6.96764 4.82353C6.88669 4.87822 6.81402 4.94426 6.75186 5.01961C3.71065 7.7086 1.55984 11.2588 0.585111 15.1987C-0.389614 19.1386 -0.142118 23.2817 1.29472 27.0776C2.73156 30.8735 5.28975 34.1427 8.62947 36.4508C11.9692 38.759 15.9324 39.9968 19.9927 40H20.4438C24.0813 39.914 27.6267 38.839 30.6991 36.8906C33.7715 34.9422 36.2548 32.194 37.8824 28.9412H37.9021L38.0001 28.7255ZM37.647 20C37.6505 22.264 37.2176 24.5075 36.372 26.6078L26.8583 20.7647C26.5372 20.5599 26.176 20.4262 25.799 20.3725L21.3069 19.7647C20.7701 19.7015 20.2265 19.7957 19.7424 20.0359C19.2582 20.2762 18.8545 20.652 18.5803 21.1176H16.6776C16.6058 21.1125 16.5362 21.0902 16.4748 21.0527C16.4134 21.0151 16.3618 20.9635 16.3245 20.902L15.5791 19.3529C15.3998 18.9773 15.1369 18.6477 14.8105 18.3894C14.4841 18.1311 14.1028 17.9509 13.6959 17.8627L11.9501 17.4902L13.029 14.9216C13.0544 14.8494 13.1025 14.7874 13.1662 14.745C13.2299 14.7025 13.3057 14.6819 13.3821 14.6863H17.5799C18.0416 14.6879 18.4954 14.566 18.8942 14.3333L21.3069 13.0196C21.4848 12.9066 21.6552 12.7822 21.8169 12.6471L27.0936 7.88235C27.5577 7.46382 27.8651 6.89956 27.9649 6.2828C28.0648 5.66605 27.9512 5.03369 27.6429 4.4902L27.3487 3.96078C30.4226 5.36647 33.0275 7.62563 34.8533 10.4692C36.6792 13.3129 37.6489 16.6211 37.647 20ZM24.0139 2.82353L25.6028 5.64706C25.6402 5.72393 25.6528 5.81054 25.6387 5.89487C25.6247 5.97919 25.5847 6.05705 25.5244 6.11765L20.228 10.902L20.1692 10.9608L17.7564 12.2745C17.7049 12.3115 17.6433 12.332 17.5799 12.3333H13.3821C12.8432 12.3323 12.316 12.4898 11.866 12.7862C11.4161 13.0826 11.0633 13.5047 10.8516 14L9.59618 16.9804H9.47848C9.41339 16.9679 9.35311 16.9374 9.30455 16.8924C9.25598 16.8473 9.22109 16.7895 9.20386 16.7255L6.94802 10.7059C6.90985 10.6116 6.90985 10.5061 6.94802 10.4118L8.59576 6.52941C11.778 3.82851 15.818 2.34799 19.9927 2.35294C21.347 2.34993 22.6969 2.50791 24.0139 2.82353ZM2.33826 20C2.33658 16.9335 3.13435 13.9194 4.65295 11.2549L4.75103 11.5294L7.00687 17.549C7.16448 17.9785 7.4292 18.3605 7.77591 18.6591C8.12263 18.9576 8.53987 19.1627 8.98808 19.2549L10.067 19.4902H10.0866L13.2055 20.1569C13.2607 20.173 13.312 20.2006 13.3559 20.2377C13.3998 20.2749 13.4354 20.3208 13.4605 20.3725L14.2059 21.9216C14.4344 22.3829 14.7863 22.7719 15.2227 23.0454C15.659 23.3188 16.1626 23.466 16.6776 23.4706H17.5014L15.7556 27.4118C15.5368 27.9021 15.4667 28.4457 15.5539 28.9754C15.641 29.5052 15.8817 29.9977 16.246 30.3922L19.9338 34.3726C19.9724 34.4183 20.001 34.4715 20.0179 34.5289C20.0348 34.5863 20.0396 34.6466 20.0319 34.7059L19.463 37.6471C14.8765 37.4996 10.5266 35.5767 7.33152 32.2841C4.13644 28.9916 2.34606 24.587 2.33826 20ZM21.8758 37.549L22.3466 35.1569C22.424 34.7353 22.4022 34.3015 22.2831 33.8897C22.1639 33.4779 21.9506 33.0995 21.66 32.7843L17.9722 28.7843C17.9218 28.726 17.8879 28.6552 17.8741 28.5793C17.8603 28.5035 17.8671 28.4253 17.8937 28.3529L20.4046 22.7451L20.5811 22.3333C20.6193 22.2582 20.6786 22.1958 20.7519 22.154C20.8251 22.1122 20.9089 22.0927 20.9931 22.098L25.4851 22.7059C25.5244 22.7255 25.5832 22.7255 25.6224 22.7647L35.3324 28.7255C33.9482 31.1559 32.0065 33.2231 29.6671 34.7571C27.3277 36.291 24.6574 37.2479 21.8758 37.549Z" fill="white"/>
</svg>
