<svg width="40" height="34" viewBox="0 0 40 34" fill="none" xmlns="http://www.w3.org/2000/svg">
<path d="M37.2549 0H2.7451C2.01705 0 1.31883 0.291569 0.804021 0.810565C0.289215 1.32956 0 2.03347 0 2.76744V31.2326C0 31.9665 0.289215 32.6704 0.804021 33.1894C1.31883 33.7084 2.01705 34 2.7451 34H5.37255C5.59388 33.9997 5.81064 33.9365 5.99794 33.8176C6.18523 33.6987 6.33546 33.529 6.43137 33.3279C7.22538 31.6354 8.47991 30.205 10.0489 29.2033C11.618 28.2016 13.4369 27.6698 15.2941 27.6698C17.1513 27.6698 18.9703 28.2016 20.5393 29.2033C22.1083 30.205 23.3629 31.6354 24.1569 33.3279C24.2528 33.529 24.403 33.6987 24.5903 33.8176C24.7776 33.9365 24.9944 33.9997 25.2157 34H37.2549C37.9829 34 38.6812 33.7084 39.196 33.1894C39.7108 32.6704 40 31.9665 40 31.2326V2.76744C40 2.03347 39.7108 1.32956 39.196 0.810565C38.6812 0.291569 37.9829 0 37.2549 0ZM10.1961 20.1628C10.1961 19.1463 10.4951 18.1526 11.0553 17.3074C11.6154 16.4622 12.4116 15.8035 13.3432 15.4145C14.2747 15.0255 15.2998 14.9237 16.2887 15.122C17.2776 15.3203 18.186 15.8098 18.899 16.5286C19.6119 17.2474 20.0975 18.1631 20.2942 19.1601C20.4909 20.1571 20.39 21.1905 20.0041 22.1296C19.6182 23.0687 18.9648 23.8714 18.1264 24.4362C17.2881 25.0009 16.3024 25.3023 15.2941 25.3023C13.9436 25.2971 12.6499 24.754 11.695 23.7912C10.74 22.8285 10.2012 21.5243 10.1961 20.1628ZM37.6471 31.2326C37.6471 31.3374 37.6057 31.438 37.5322 31.5121C37.4587 31.5863 37.3589 31.6279 37.2549 31.6279H25.9412C24.5685 29.1452 22.3863 27.2177 19.7647 26.1721C21.0158 25.2262 21.9399 23.9074 22.4062 22.4025C22.8725 20.8977 22.8573 19.2831 22.3627 17.7874C21.8682 16.2917 20.9194 14.9909 19.6508 14.069C18.3821 13.1472 16.8579 12.6512 15.2941 12.6512C13.7303 12.6512 12.2061 13.1472 10.9375 14.069C9.66881 14.9909 8.72002 16.2917 8.2255 17.7874C7.73097 19.2831 7.71577 20.8977 8.18206 22.4025C8.64834 23.9074 9.57246 25.2262 10.8235 26.1721C8.20189 27.2177 6.01969 29.1452 4.64706 31.6279H2.7451C2.64263 31.6231 2.54563 31.5799 2.4731 31.5068C2.40056 31.4336 2.35771 31.3359 2.35294 31.2326V2.76744C2.35294 2.66259 2.39426 2.56203 2.4678 2.48789C2.54134 2.41375 2.64109 2.37209 2.7451 2.37209H37.2549C37.3589 2.37209 37.4587 2.41375 37.5322 2.48789C37.6057 2.56203 37.6471 2.66259 37.6471 2.76744V31.2326ZM33.7255 7.51163V26.4884C33.7255 26.8029 33.6015 27.1046 33.3809 27.327C33.1603 27.5495 32.861 27.6744 32.549 27.6744H29.4118C29.0997 27.6744 28.8005 27.5495 28.5799 27.327C28.3592 27.1046 28.2353 26.8029 28.2353 26.4884C28.2353 26.1738 28.3592 25.8721 28.5799 25.6497C28.8005 25.4273 29.0997 25.3023 29.4118 25.3023H31.3725V8.69767H8.62745V10.6744C8.62745 10.989 8.5035 11.2907 8.28287 11.5131C8.06224 11.7355 7.763 11.8605 7.45098 11.8605C7.13896 11.8605 6.83972 11.7355 6.61909 11.5131C6.39846 11.2907 6.27451 10.989 6.27451 10.6744V7.51163C6.27451 7.19707 6.39846 6.89539 6.61909 6.67297C6.83972 6.45054 7.13896 6.32558 7.45098 6.32558H32.549C32.861 6.32558 33.1603 6.45054 33.3809 6.67297C33.6015 6.89539 33.7255 7.19707 33.7255 7.51163Z" fill="white"/>
</svg>
