<svg width="590" height="391" viewBox="0 0 590 391" fill="none" xmlns="http://www.w3.org/2000/svg">
<path d="M590 0H0V390H590V0Z" fill="white"/>
<path d="M244.578 288.676L241.711 308.201L256.877 303.194L244.578 288.676Z" fill="#F91942"/>
<path d="M538.222 163.628C543.788 163.628 548.3 159.096 548.3 153.506C548.3 147.915 543.788 143.383 538.222 143.383C532.656 143.383 528.145 147.915 528.145 153.506C528.145 159.096 532.656 163.628 538.222 163.628Z" fill="#F91942"/>
<path d="M36.8388 66.0452L32.7887 45.8828L19.0312 60.2707L36.8388 66.0452Z" stroke="#F91942" stroke-linejoin="round"/>
<path d="M380.625 80.0816V68.8242" stroke="#FC91A3" stroke-linecap="round" stroke-linejoin="round"/>
<path d="M380.625 98.2418V86.9844" stroke="#FC91A3" stroke-linecap="round" stroke-linejoin="round"/>
<path d="M384.062 83.3516H395.27" stroke="#FC91A3" stroke-linecap="round" stroke-linejoin="round"/>
<path d="M366.371 83.3516H377.578" stroke="#FC91A3" stroke-linecap="round" stroke-linejoin="round"/>
<path d="M314.952 60.2409C329.673 60.2409 341.607 48.2534 341.607 33.4662C341.607 18.6789 329.673 6.69141 314.952 6.69141C300.231 6.69141 288.297 18.6789 288.297 33.4662C288.297 48.2534 300.231 60.2409 314.952 60.2409Z" stroke="#F91942" stroke-width="7" stroke-miterlimit="10"/>
<path d="M307.57 47.2953L315.889 33.5321L310.506 22.2266" stroke="#656565" stroke-linecap="round" stroke-linejoin="round"/>
<path d="M155.333 116.617H153.43V117.573H155.333V116.617Z" fill="white"/>
<path d="M153.906 117.094H154.858H153.906Z" stroke="#51576F"/>
<path d="M482.323 357.981C484.064 356.921 488.927 353.62 490.436 348.975C490.471 348.884 490.499 348.79 490.526 348.695C493.268 350.786 494.423 352.793 495.709 353.309C496.996 353.825 499.313 354.602 500.47 355.957C500.525 356.02 500.58 356.087 500.642 356.151H500.638C500.384 357.995 499.861 359.792 499.085 361.483C498.643 362.493 488.159 378.91 483.311 380.968C480.159 382.306 473.551 382.853 470.898 383.022C470.793 381.684 470.668 378.389 471.786 377.27C473.844 375.381 476.161 373.799 478.667 372.573C481.242 371.324 481.821 370.161 482.141 368.546C482.461 366.931 483.425 361.311 481.691 358.343C481.694 358.347 481.929 358.221 482.323 357.981Z" fill="#656565"/>
<path d="M470.902 383.026C470.796 381.688 470.672 378.393 471.79 377.273C473.847 375.384 476.165 373.802 478.671 372.577C481.246 371.327 481.825 370.164 482.145 368.549C482.464 366.934 483.428 361.315 481.695 358.347C481.695 358.347 481.93 358.22 482.325 357.981C484.066 356.921 488.929 353.62 490.438 348.975C490.473 348.884 490.501 348.79 490.528 348.695C493.271 350.786 494.425 352.793 495.712 353.309C496.998 353.825 499.315 354.602 500.472 355.957C500.527 356.02 500.582 356.087 500.644 356.151C501.822 357.463 503.711 358.984 503.523 360.721C503.332 362.548 494.924 375.551 491.517 380.122C490.625 381.335 489.491 382.347 488.186 383.093C487.146 383.71 478.862 386.638 473.524 386.507C472.847 386.353 472.235 385.99 471.774 385.47C471.312 384.949 471.024 384.297 470.95 383.604C470.95 383.604 470.925 383.383 470.902 383.026Z" stroke="#656565" stroke-miterlimit="10"/>
<path d="M470.898 383.028C473.551 382.861 480.159 382.313 483.311 380.973C488.158 378.914 498.643 362.492 499.085 361.488C499.861 359.797 500.384 358.001 500.638 356.156" stroke="#656565" stroke-width="0.605" stroke-miterlimit="10"/>
<path d="M486.57 343.168C487.722 345.191 489.014 347.131 490.436 348.973C490.675 349.283 490.815 349.46 490.815 349.46" stroke="#656565" stroke-miterlimit="10"/>
<path d="M477.969 351.469C478.816 352.211 479.56 353.063 480.182 354.003C480.997 355.332 481.903 357.119 482.326 357.98C482.486 358.294 482.576 358.487 482.576 358.487" stroke="#656565" stroke-miterlimit="10"/>
<path d="M468.946 382.246C466.92 382.665 460.273 384.007 458.157 384.117C455.649 384.247 444.202 384.631 438.541 383.858C435.986 383.508 434.795 382.671 434.258 381.858H434.254C434.551 381.029 434.979 380.254 435.522 379.563C437.567 377.099 443.655 374.624 446.068 374.105C448.349 373.617 456.271 371.813 456.271 371.813C456.275 371.812 456.279 371.812 456.284 371.813C458.013 372.56 461.996 372.623 464.925 372.552H464.973C465.99 372.552 467.035 372.517 468.071 372.423C468.124 372.423 468.176 372.419 468.228 372.41C468.249 372.412 468.27 372.412 468.29 372.41C468.361 372.41 468.4 372.403 468.4 372.403C468.438 372.402 468.476 372.4 468.513 372.395C468.712 375.106 468.916 379.044 468.946 382.246Z" fill="#656565"/>
<path d="M468.288 372.411C468.359 372.411 468.398 372.404 468.398 372.404C468.398 372.172 468.414 363.323 468.511 360.929C465.905 362.19 457.217 360.875 457.217 360.875C457.217 360.875 457.248 369.395 456.27 371.818" stroke="#656565" stroke-miterlimit="10"/>
<path d="M464.969 372.556C466.37 372.521 467.527 372.458 468.067 372.427C468.127 372.427 468.181 372.419 468.224 372.414" stroke="#656565" stroke-miterlimit="10"/>
<path d="M456.281 371.82C458.01 372.567 461.993 372.63 464.923 372.56" stroke="#656565" stroke-miterlimit="10"/>
<path d="M468.397 372.398C468.435 372.397 468.473 372.395 468.51 372.39C468.714 375.106 468.917 379.044 468.948 382.246C468.98 385.102 468.874 387.382 468.51 387.701C467.739 388.381 444.392 391.38 433.877 388.09C433.317 386.027 433.448 383.837 434.248 381.857C434.545 381.028 434.973 380.254 435.516 379.562C437.562 377.099 443.649 374.623 446.063 374.104C448.343 373.616 456.265 371.812 456.265 371.812" stroke="#656565" stroke-miterlimit="10"/>
<path d="M468.227 372.418C468.247 372.42 468.268 372.42 468.289 372.418C468.326 372.418 468.363 372.414 468.399 372.406" stroke="#656565" stroke-miterlimit="10"/>
<path d="M464.969 372.556C465.986 372.556 467.031 372.521 468.067 372.427C468.12 372.427 468.172 372.422 468.224 372.414" stroke="#656565" stroke-miterlimit="10"/>
<path d="M464.922 372.555H464.969" stroke="#656565" stroke-miterlimit="10"/>
<path d="M456.281 371.82C459.138 372.296 462.027 372.543 464.923 372.56" stroke="#656565" stroke-miterlimit="10"/>
<path d="M456.27 371.813C456.274 371.812 456.279 371.812 456.283 371.813" stroke="#656565" stroke-miterlimit="10"/>
<path d="M434.258 381.859C434.793 382.673 435.987 383.51 438.541 383.86C444.202 384.634 455.649 384.249 458.156 384.119C460.273 384.009 466.92 382.666 468.946 382.248" stroke="#656565" stroke-width="0.605" stroke-miterlimit="10"/>
<path d="M472.635 312.258C472.641 312.265 472.641 312.264 472.635 312.271C481.971 324.509 491.76 337.286 491.656 337.806C491.773 337.968 489.457 340.334 486.571 343.167C483.634 346.053 480.102 349.426 477.966 351.466C476.801 352.571 476.051 353.286 476.032 353.306C476.032 353.306 474.091 350.771 471.043 346.775" stroke="#656565" stroke-miterlimit="10"/>
<path d="M448.819 317.618C440.453 306.602 433.334 297.153 433.013 296.523C431.701 294.088 430.975 291.38 430.891 288.613C430.891 285.162 436.675 241.684 438.8 233.157C440.548 226.125 441.381 204.731 441.62 197.439C441.665 195.886 441.691 194.976 441.691 194.976L447.87 192.863C447.87 192.863 447.948 193.981 448.097 195.983V195.989C448.129 196.451 448.167 196.951 448.206 197.504" stroke="#656565" stroke-miterlimit="10"/>
<path d="M478.739 237.226C477.113 241.589 476.073 246.151 475.646 250.789C475.426 252.922 473.963 283.811 472.637 312.255C472.644 312.262 472.644 312.262 472.637 312.268C472.035 325.273 471.46 337.775 471.045 346.771C470.735 353.545 470.508 358.34 470.437 359.893C468.399 361.428 464.82 361.668 461.159 361.369C456.99 360.946 452.869 360.128 448.853 358.925C448.853 358.925 448.445 333.15 448.834 321.718C448.867 320.841 448.86 319.444 448.821 317.621C448.387 295.627 443.625 210.854 443.625 206.026V197.694L443.819 197.622L448.096 195.991V195.985L456.274 192.865L469.667 187.75C471.797 190.342 473.786 193.048 475.626 195.855C479.023 201.016 482.756 207.826 483.558 213.78C485.105 225.211 480.667 232.189 478.739 237.226Z" stroke="#656565" stroke-miterlimit="10"/>
<path d="M456.273 192.859C460.123 201.904 462.642 211.463 463.754 221.236C465.984 239.474 462.956 337.047 461.16 361.369" stroke="#656565" stroke-miterlimit="10"/>
<path d="M370.183 185.709C369.244 186.411 347.092 186.677 344.368 185.709C343.798 185.508 346.522 180.1 351.401 177.033C352.016 177.263 352.676 177.349 353.329 177.284C355.264 177.153 357.528 176.478 361.727 176.666C357.721 177.056 353.523 177.94 353.089 178.519C352.655 179.098 352.365 179.606 352.461 180C352.558 180.394 354.053 180.449 357.864 179.773C359.621 179.378 361.422 179.214 363.221 179.286C363.221 179.286 356.561 179.59 355.936 181.254C355.31 182.918 358.013 182.775 358.013 182.775C360.511 182.288 363.041 181.98 365.583 181.856C366.812 181.893 368.026 182.139 369.174 182.583C369.976 184.169 370.299 185.456 370.183 185.709Z" fill="#F91942"/>
<path d="M382.135 181.805C380.071 182.103 376.202 183.254 372.883 183.254C371.618 183.243 370.364 183.015 369.176 182.578C368.028 182.134 366.814 181.888 365.585 181.851C363.043 181.975 360.513 182.283 358.015 182.77C358.015 182.77 355.311 182.913 355.938 181.249C356.565 179.585 363.223 179.28 363.223 179.28C361.424 179.208 359.623 179.372 357.866 179.767C354.055 180.443 352.56 180.391 352.464 179.995C352.367 179.599 352.658 179.085 353.091 178.513C353.525 177.941 357.724 177.05 361.729 176.661C357.53 176.473 355.265 177.148 353.331 177.278C352.678 177.343 352.018 177.258 351.403 177.027C350.859 176.806 350.614 176.501 350.588 176.371C350.536 176.12 350.49 175.545 352.128 174.966C353.746 174.388 358.669 173.963 360.805 173.719" stroke="#656565" stroke-linejoin="round"/>
<path d="M382.156 177.196C381.152 177.323 380.135 177.308 379.135 177.151C377.543 176.859 368.957 173.324 366.351 172.595C360.988 171.398 355.478 171.006 350 171.432C348.894 172.017 349.134 172.79 350 173.226C350.841 173.648 359.427 173.843 360.799 173.728C360.838 173.721 360.877 173.721 360.902 173.714" stroke="#656565" stroke-linecap="round" stroke-linejoin="round"/>
<path d="M386.185 184.676C384.257 184.962 382.393 184.13 382.272 183.642C382.195 183.032 382.15 182.418 382.136 181.803C382.129 181.588 382.123 181.367 382.117 181.134C382.091 180.263 382.078 179.307 382.091 178.514C382.104 177.982 382.124 177.52 382.162 177.195C382.168 177.035 382.205 176.878 382.272 176.733C382.563 176.311 385.953 175.537 386.71 175.375" stroke="#656565" stroke-miterlimit="10"/>
<path d="M382.113 181.133L383.271 181.165L386.185 181.237" stroke="#656565" stroke-miterlimit="10"/>
<path d="M385.756 178.18L382.086 178.513" stroke="#656565" stroke-miterlimit="10"/>
<path d="M443.816 66.2969C442.789 68.1202 442.361 70.2227 442.594 72.3046C442.915 75.9842 443.321 79.5392 443.183 81.2192C443.045 82.8993 442.272 88.6478 440.922 90.5854C441.243 91.9418 443.494 91.8122 443.816 92.2646C444.137 92.717 444.523 96.9159 444.523 99.2416C444.523 101.567 448.186 101.632 449.601 101.115C451.016 100.598 457.319 98.402 460.923 95.4951" stroke="#656565" stroke-miterlimit="10"/>
<path d="M453.453 99.6328C453.879 102.066 454.124 104.527 454.185 106.997C454.236 114.122 452.93 115.913 452.93 115.913" stroke="#656565" stroke-miterlimit="10"/>
<path d="M435.329 133.449C438.085 128.733 440.442 129.863 445.168 125.02C449.894 120.176 452.595 116.105 452.933 114.65C454.525 114.359 471.888 113.293 472.853 114.65C473.818 116.007 476.516 119.203 476.516 119.203C476.516 119.203 477.578 132.865 476.516 139.943C475.455 147.02 470.15 156.609 468.896 163.876C467.642 171.143 470.15 186.841 475.649 195.851C470.44 195.076 466.292 194.204 463.302 194.398C460.311 194.592 452.305 196.823 448.929 197.402C446.399 197.728 443.838 197.728 441.308 197.402C439.572 196.045 438.221 184.902 437.932 183.255C437.643 181.609 437.739 167.074 437.739 167.074L427.998 176.085C426.862 176.987 425.634 177.767 424.335 178.411C422.888 178.992 420.766 180.836 386.038 185.097C385.267 183.934 385.363 175.407 385.363 175.407L416.135 166.589C417.822 165.992 419.465 165.28 421.055 164.457C422.02 163.779 433.691 149.536 436.586 145.562C435.154 143.922 434.264 141.876 434.039 139.707C433.814 137.537 434.265 135.35 435.329 133.449Z" fill="#F91942" stroke="#51576F" stroke-linejoin="round"/>
<path d="M440.567 63.8125C440.651 62.6952 441.867 60.6715 444.215 59.882C446.562 59.0926 450.842 59.7374 452.821 59.489C455.952 59.0968 462.796 56.2819 471.403 59.0324C480.011 61.7829 481.381 65.7769 482.163 68.5274C482.946 71.2778 483.727 75.6005 484.51 76.3883C485.293 77.176 489.205 80.7109 489.987 85.0336C490.77 89.3563 489.205 95.2511 489.205 96.4294C489.205 97.6077 493.509 101.538 492.725 105.861C491.942 110.183 488.104 116.192 484.51 118.436C482.67 119.624 480.572 120.352 478.394 120.557C476.215 120.762 474.02 120.439 471.991 119.615C467.857 117.934 467.745 118.829 462.212 118.829C458.691 118.829 454.395 115.637 455.17 110.968C455.561 108.61 456.735 107.431 457.126 105.466C457.518 103.501 455.953 101.93 455.953 100.358C455.953 98.7868 457.126 96.8216 457.126 96.0347C457.126 95.2477 456.798 90.9385 457.126 88.9615C457.517 86.6041 458.691 85.0311 458.691 82.2806C458.691 79.5301 453.996 77.9579 453.996 77.9579C451.764 76.2913 449.787 74.3053 448.128 72.0631C445.781 68.5265 443.824 69.3126 442.651 68.5265C441.899 68.0158 441.305 67.3031 440.936 66.4696C440.568 65.6361 440.44 64.7154 440.567 63.8125Z" fill="#656565"/>
<path d="M437.836 166.876C437.836 166.876 455.392 150.145 462.978 139.68C460.02 145.235 444.779 166.035 437.836 169.588C437.901 168.104 437.836 166.876 437.836 166.876Z" fill="#656565"/>
<path d="M393.386 186.453H226.575C225.718 186.453 225.023 187.151 225.023 188.012V197.995C225.023 198.856 225.718 199.554 226.575 199.554H393.386C394.243 199.554 394.938 198.856 394.938 197.995V188.012C394.938 187.151 394.243 186.453 393.386 186.453Z" fill="#656565"/>
<path d="M309.547 193.793V383.443" stroke="#656565" stroke-miterlimit="10"/>
<path d="M324.063 196.781H295.034C294.739 196.781 294.5 197.021 294.5 197.317V203.003C294.5 203.299 294.739 203.539 295.034 203.539H324.063C324.358 203.539 324.597 203.299 324.597 203.003V197.317C324.597 197.021 324.358 196.781 324.063 196.781Z" fill="#656565"/>
<path d="M341.869 373.922H277.362C277.098 373.922 276.883 374.138 276.883 374.404V385.769C276.883 386.035 277.098 386.251 277.362 386.251H341.869C342.134 386.251 342.349 386.035 342.349 385.769V374.404C342.349 374.138 342.134 373.922 341.869 373.922Z" fill="#656565"/>
<path d="M286.695 163.992L278.203 186.278H296.628L286.695 163.992Z" stroke="#FC91A3" stroke-linejoin="round"/>
<path d="M280.336 136.828L301.686 186.277" stroke="#FC91A3" stroke-linecap="round" stroke-linejoin="round"/>
<path d="M64.2027 232.62C64.3609 232.577 64.5217 232.534 64.6729 232.488C64.7824 232.454 64.8741 232.378 64.9283 232.277C64.9825 232.176 64.9949 232.057 64.9626 231.947C64.9478 231.892 64.9224 231.841 64.8877 231.797C64.8531 231.752 64.81 231.715 64.761 231.687C64.7119 231.66 64.6579 231.642 64.602 231.636C64.5462 231.629 64.4896 231.634 64.4356 231.65C64.3877 231.664 64.3379 231.676 64.2901 231.691C65.4341 219.518 67.0024 210.783 69.1642 208.344C85.8549 210.282 115.037 209.779 115.037 209.779C115.037 209.779 117.739 220.381 120.953 234.124C120.461 233.844 119.975 233.556 119.509 233.257C119.461 233.226 119.408 233.206 119.353 233.196C119.298 233.187 119.241 233.189 119.186 233.202C119.132 233.214 119.08 233.238 119.035 233.271C118.989 233.305 118.951 233.347 118.922 233.395C118.862 233.493 118.842 233.611 118.867 233.723C118.893 233.836 118.96 233.934 119.056 233.997C119.656 234.381 120.284 234.756 120.923 235.108C121.004 235.157 121.101 235.172 121.193 235.151C125.235 252.496 129.592 274.503 131.202 286.513C134.545 311.46 116.42 370.177 116.42 370.177C116.42 370.177 102.763 369.722 95.7753 366.086C101.654 341.824 108.529 291.359 107.269 289.42C106.01 287.482 95.9316 261.641 93.0974 246.458C91.5227 263.578 77.7204 367.696 77.7204 367.696C77.7204 367.696 68.6601 370.105 60.2953 367.089C61.0182 357.201 60.4471 273.906 64.2027 232.62ZM113.937 230.185C114.66 230.911 115.433 231.585 116.249 232.204C116.294 232.238 116.345 232.262 116.399 232.276C116.454 232.29 116.51 232.292 116.566 232.284C116.621 232.275 116.674 232.255 116.722 232.226C116.77 232.196 116.811 232.157 116.844 232.111C116.911 232.018 116.939 231.902 116.923 231.787C116.906 231.673 116.846 231.57 116.754 231.5C115.97 230.906 115.228 230.259 114.533 229.561C114.494 229.521 114.447 229.489 114.395 229.468C114.343 229.446 114.287 229.435 114.231 229.436C114.175 229.436 114.12 229.448 114.068 229.471C114.017 229.493 113.97 229.526 113.932 229.567C113.851 229.651 113.807 229.762 113.808 229.879C113.809 229.995 113.856 230.106 113.937 230.188V230.185ZM110.034 224.872C110.519 225.783 111.063 226.661 111.664 227.499C111.697 227.545 111.738 227.584 111.786 227.614C111.833 227.644 111.887 227.663 111.942 227.672C111.998 227.68 112.054 227.678 112.109 227.664C112.163 227.65 112.214 227.626 112.259 227.592C112.35 227.522 112.411 227.419 112.428 227.305C112.445 227.191 112.416 227.074 112.349 226.981C111.772 226.175 111.248 225.33 110.782 224.454C110.756 224.404 110.72 224.36 110.676 224.324C110.633 224.288 110.583 224.261 110.529 224.245C110.475 224.229 110.419 224.224 110.363 224.23C110.307 224.236 110.253 224.253 110.204 224.281C110.104 224.338 110.03 224.432 109.999 224.543C109.967 224.654 109.98 224.773 110.034 224.875V224.872ZM107.701 218.671C107.943 219.676 108.242 220.667 108.594 221.639C108.613 221.692 108.642 221.741 108.68 221.783C108.718 221.825 108.764 221.859 108.815 221.883C108.866 221.906 108.921 221.92 108.977 221.922C109.034 221.924 109.09 221.915 109.142 221.895C109.249 221.853 109.335 221.77 109.381 221.665C109.428 221.56 109.432 221.44 109.392 221.332C109.05 220.392 108.76 219.433 108.525 218.46C108.512 218.405 108.489 218.352 108.456 218.306C108.423 218.26 108.382 218.221 108.334 218.191C108.286 218.161 108.232 218.142 108.177 218.133C108.121 218.124 108.064 218.126 108.009 218.139C107.898 218.17 107.803 218.243 107.746 218.343C107.688 218.443 107.672 218.561 107.701 218.673V218.671ZM107.078 215.18C107.09 215.285 107.139 215.382 107.217 215.453C107.295 215.523 107.396 215.563 107.501 215.564C107.518 215.565 107.534 215.565 107.551 215.564C107.664 215.549 107.767 215.49 107.837 215.399C107.907 215.308 107.939 215.193 107.924 215.079C107.82 214.205 107.764 213.325 107.759 212.444C107.759 212.223 107.764 212.101 107.764 212.096C107.771 211.981 107.731 211.869 107.655 211.783C107.579 211.698 107.472 211.646 107.358 211.64C107.302 211.637 107.245 211.646 107.192 211.665C107.139 211.685 107.09 211.715 107.048 211.753C107.007 211.792 106.973 211.839 106.95 211.891C106.926 211.942 106.913 211.998 106.912 212.055C106.912 212.055 106.905 212.192 106.905 212.444C106.912 213.359 106.969 214.273 107.078 215.182V215.18ZM77.6821 215.619C77.7087 215.091 77.7051 214.562 77.6713 214.035C77.6607 213.922 77.6068 213.817 77.5208 213.743C77.4348 213.669 77.3236 213.632 77.2106 213.638C77.097 213.65 76.9925 213.706 76.9199 213.794C76.8474 213.883 76.8126 213.997 76.8233 214.111C76.8535 214.6 76.8563 215.091 76.8316 215.581C76.8257 215.695 76.8652 215.808 76.9415 215.893C77.0178 215.978 77.1247 216.03 77.2387 216.036H77.2572C77.3674 216.035 77.473 215.991 77.5521 215.914C77.6311 215.837 77.6777 215.732 77.6821 215.621V215.619ZM75.8318 222.224C75.881 222.244 75.9336 222.255 75.9868 222.255C76.0731 222.254 76.1572 222.227 76.2279 222.178C76.2987 222.128 76.3528 222.058 76.383 221.977C76.7433 221.029 77.0303 220.055 77.2412 219.063C77.2659 218.951 77.2456 218.833 77.1847 218.736C77.1238 218.639 77.0272 218.57 76.9158 218.543C76.8607 218.531 76.8038 218.531 76.7484 218.541C76.6929 218.551 76.6401 218.572 76.5929 218.603C76.5457 218.634 76.5052 218.675 76.4735 218.721C76.4419 218.768 76.4198 218.821 76.4086 218.876C76.2076 219.824 75.9339 220.754 75.5899 221.659C75.5478 221.767 75.5499 221.887 75.5956 221.994C75.6414 222.1 75.7272 222.184 75.8343 222.227L75.8318 222.224ZM72.3997 227.5C72.4399 227.539 72.4875 227.57 72.5397 227.591C72.592 227.611 72.6478 227.621 72.7039 227.62C72.76 227.618 72.8152 227.605 72.8663 227.582C72.9174 227.559 72.9633 227.525 73.0014 227.484C73.6866 226.742 74.3021 225.938 74.8402 225.082C74.9015 224.984 74.9225 224.866 74.8987 224.754C74.8748 224.641 74.8081 224.542 74.7126 224.477C74.6658 224.446 74.6133 224.425 74.5582 224.415C74.5031 224.404 74.4464 224.405 74.3916 224.417C74.3369 224.429 74.285 224.452 74.2391 224.484C74.1932 224.517 74.1542 224.558 74.1243 224.606C73.6149 225.416 73.032 226.177 72.3831 226.88C72.3042 226.965 72.262 227.079 72.2657 227.195C72.2694 227.312 72.3187 227.422 72.4029 227.503L72.3997 227.5ZM67.2762 231.053C67.3097 231.127 67.3635 231.19 67.4313 231.234C67.4991 231.279 67.5781 231.303 67.659 231.304C67.7217 231.304 67.7837 231.29 67.8402 231.262C68.7383 230.829 69.5993 230.322 70.4147 229.747C70.5081 229.68 70.5717 229.579 70.592 229.465C70.6122 229.352 70.5875 229.235 70.5232 229.139C70.492 229.092 70.4518 229.052 70.4049 229.021C70.3579 228.99 70.3053 228.969 70.2501 228.958C70.1949 228.948 70.1381 228.949 70.0832 228.961C70.0283 228.973 69.9764 228.996 69.9304 229.029C69.153 229.576 68.3323 230.059 67.4765 230.473C67.3742 230.524 67.2961 230.615 67.2591 230.724C67.2222 230.833 67.2292 230.952 67.2787 231.056L67.2762 231.053ZM77.7178 367.696C77.7178 367.696 68.2709 369.529 60.2927 367.089C61.0156 357.2 60.4446 273.905 64.2001 232.619" fill="#656565"/>
<path d="M132.301 383.766C132.268 384.625 132.035 385.464 131.619 386.215L132.301 383.766Z" fill="#656565"/>
<path d="M95.5701 384.961H95.5745L95.6237 383.603H95.6281C95.6524 376.634 96.6222 377.547 97.4204 368.378C97.5027 368.437 97.5857 368.49 97.668 368.547L97.8913 366.117L98.5032 366.174L98.248 368.925C102.631 371.609 106.881 370.738 108.903 370.555L109.264 368.01L109.873 368.096L109.529 370.528C109.685 370.522 109.84 370.554 109.982 370.621C111.137 371.321 109.937 371.674 111.346 373.744C112.756 375.814 126.536 378.423 130.488 379.692C132.713 380.405 132.99 382.599 132.569 384.499H132.544C132.458 384.976 132.316 385.441 132.121 385.884C131.895 386.552 131.472 387.136 130.908 387.558C129.577 388.211 102.553 387.353 101.941 387.508C101.329 387.663 101.298 388.033 101.298 388.033L95.6243 387.799C95.5196 386.857 95.5015 385.907 95.5701 384.961ZM131.433 385.904C131.646 385.479 131.806 385.03 131.91 384.566C126.767 384.955 106.784 383.812 96.2298 383.769L96.1858 384.982C110.046 385.442 125.978 386.01 131.433 385.904Z" fill="#656565"/>
<path d="M62.0587 377.27C63.2365 373.128 63.8956 371.913 64.1751 368.916C64.1923 368.934 64.2089 368.944 64.2255 368.961V367.492H64.8393V369.447C66.585 370.519 68.101 368.852 69.4064 368.916C71.2479 369.007 71.2293 370.43 73.6495 369.489L74.2122 367.721L74.7967 367.909L74.3992 369.159C74.4451 369.136 74.4847 369.119 74.5325 369.094C74.329 370.497 74.4094 371.199 74.7393 373.684C75.1482 376.76 76.2106 378.752 76.3108 380.615C76.3682 381.683 76.6617 384.454 75.8125 385.883C75.8278 385.937 75.8278 385.995 75.8125 386.049L75.0781 388.363C75.0698 388.388 75.0481 388.403 75.0353 388.423C74.9662 388.716 74.8125 388.983 74.5935 389.189C74.3745 389.395 74.0998 389.532 73.8039 389.582C71.4807 390.101 65.5131 390.211 63.1797 389.461C62.9671 389.334 62.7885 389.156 62.6592 388.944C62.5298 388.732 62.4536 388.492 62.437 388.244C62.3783 388.198 62.3383 388.132 62.3247 388.058L61.8175 385.313C61.8156 385.295 61.8156 385.277 61.8175 385.258C60.4291 380.914 61.5304 378.911 62.0587 377.27ZM74.5644 387.948L75.1042 386.247C72.947 386.414 64.7078 386.172 62.5799 386.074L62.8735 387.662C64.7551 387.721 70.4701 388.02 74.5683 387.948H74.5644Z" fill="#656565"/>
<path d="M117.707 63.054C117.277 60.9313 115.096 59.0374 112.487 58.5907C107.368 57.7133 96.9 59.0733 93.1732 60.0686C89.4463 61.064 81.2908 64.248 79.3594 72.0095C77.428 79.7709 80.2897 88.3957 87.016 95.6271C89.0195 97.4178 89.5918 96.5557 90.2356 93.7043C90.8794 90.8529 91.4517 90.1216 89.9491 88.9943C88.4465 87.8669 87.0141 84.3509 89.3053 83.8856C91.5965 83.4202 92.5249 84.8899 92.5249 84.8899C93.0991 86.3409 94.3855 86.8049 94.5284 85.3456C94.6713 83.8862 95.0388 81.8378 93.1744 77.6206C91.3101 73.4034 92.5249 69.6887 94.7428 68.9587C96.9606 68.2287 102.97 68.826 108.407 71.0148C111.626 71.6807 118.469 66.8296 117.707 63.054Z" fill="#656565"/>
<path d="M108.836 69.2188C109.338 70.8857 109.682 72.5963 109.865 74.3281C110.024 76.6405 109.987 79.0882 110.224 80.9045C110.355 81.9114 113.054 89.1223 112.831 89.744C112.623 90.3208 110.141 90.3285 109.603 90.6233C109.323 91.22 109.539 100.116 109.471 100.942C109.227 103.8 107.849 105.094 102.162 104.241C96.896 103.451 92.9037 98.6007 92.9037 98.6007" stroke="#656565" stroke-miterlimit="10"/>
<path d="M87.2987 104.473C87.8729 103.068 88.414 100.667 88.5078 96.5625" stroke="#656565" stroke-miterlimit="10"/>
<path d="M104.367 108.566C104.312 108.392 104.265 108.219 104.226 108.042C104.212 107.997 104.202 107.951 104.197 107.904C104.175 107.819 104.158 107.734 104.146 107.647C104.116 107.51 104.095 107.369 104.078 107.232C103.954 106.308 103.928 105.373 104.001 104.444C104.001 104.419 104.005 104.395 104.005 104.375" stroke="#656565" stroke-width="0.96" stroke-miterlimit="10"/>
<path d="M39.9456 217.1C39.9456 217.1 38.5457 219.54 38.6159 221.119C38.6861 222.697 39.5953 228.512 39.6654 229.446C39.7356 230.379 39.3158 233.752 39.6654 235.406C40.0151 237.06 40.3597 238.923 38.6133 238.062C36.867 237.201 36.9359 234.401 36.9359 233.255C36.9359 232.109 36.971 228.913 35.8512 228.913C34.7314 228.913 33.997 233.758 32.772 235.588C32.028 236.701 27.4181 242.659 26.2288 243.162C25.0394 243.664 23.5694 243.018 24.619 241.08C25.6686 239.142 28.6432 236.126 29.4828 234.691C30.3225 233.256 30.9873 231.031 30.4973 230.672C30.0379 230.336 26.5089 235.625 25.3891 237.06C24.2693 238.495 21.4006 242.193 20.42 241.403C19.4393 240.613 19.8604 239.214 22.7297 235.481C25.599 231.748 27.9081 228.591 27.2088 228.016C26.5095 227.441 22.1 232.969 21.4026 233.902C20.7052 234.835 18.1887 237.865 17.4837 237.276C16.5553 236.499 17.4837 233.974 19.9325 231.315C22.3813 228.657 24.1315 225.931 23.4322 225.716C22.7329 225.501 18.9365 227.2 17.8174 227.798C16.6089 228.444 14.6845 226.649 18.1134 224.999C21.5423 223.349 27.2803 221.051 31.4097 212.078C35.3267 214.228 39.9456 217.1 39.9456 217.1Z" stroke="#656565" stroke-miterlimit="10"/>
<path d="M170.772 134.799C170.772 134.799 174.656 133.722 176.965 130.815C179.274 127.908 182.125 121.577 187.987 118.756C189.752 117.946 191.741 117.767 193.621 118.25C194.742 118.881 196.98 120.168 198.064 120.91C199.219 121.699 199.532 123.602 197.33 123.494C195.128 123.386 192.608 121.233 191.136 121.34C189.664 121.447 187.357 123.781 187.253 126.275" stroke="#656565" stroke-miterlimit="10" stroke-linecap="round"/>
<path d="M178.577 145.32C178.577 145.32 183.148 140.765 185.434 140.18H185.439C185.486 140.167 185.528 140.158 185.571 140.15C188.114 139.874 190.622 139.335 193.055 138.543" stroke="#656565" stroke-miterlimit="10"/>
<path d="M181.006 138.246C181.006 138.246 182.231 140.489 185.453 140.177" stroke="#656565" stroke-miterlimit="10" stroke-linecap="round"/>
<path d="M39.4535 184.221C40.995 180.343 46.0305 171.156 49.3899 154.931C58.8279 116.229 77.896 108.348 83.9154 107.086C84.1706 107.031 84.3977 106.99 84.6038 106.957C83.4419 105.79 83.6378 104.75 83.6735 104.622C83.7259 104.433 84.9854 101.499 88.9221 105.455C92.8589 109.411 99.3402 108.497 101.676 107.939C104.012 107.381 105.705 107.402 106.229 108.363C106.333 108.56 106.389 108.779 106.393 109.001C106.396 109.224 106.347 109.445 106.248 109.645C106.381 109.657 106.514 109.665 106.645 109.68C128.599 112.217 142.004 155.277 141.591 155.416L169.898 134.691C169.898 134.691 171.053 133.004 172.558 134.691C179.837 142.874 178.854 146.031 178.854 146.031C178.854 146.031 175.078 150.048 166.257 158.808C157.436 167.568 147.083 177.76 140.089 176.611C133.094 175.463 124.55 161.966 121.051 154.359C121.753 173.594 118.394 209.2 116.291 211.924C99.3568 220.251 69.965 212.789 67.7255 210.204C65.4866 207.186 67.8665 156.079 67.8665 156.079C67.8665 156.079 60.3101 177.037 58.2115 182.498C56.113 187.958 46.4529 211.925 41.9744 217.095C33.7155 216.951 30.4972 210.92 30.4972 210.92C30.4972 210.92 37.9158 188.098 39.4535 184.221Z" fill="#F91942"/>
<path d="M121.014 145.316V154.935L127.312 164.984C127.312 164.984 122.833 154.145 121.014 145.316Z" fill="#656565" stroke="#656565" stroke-width="0.998" stroke-linejoin="round"/>
<path d="M69.1641 146.359L67.8695 156.947C67.8695 156.947 64.4049 165.166 62.7957 169.688C63.3578 160.536 69.1641 146.359 69.1641 146.359Z" fill="#656565" stroke="#656565" stroke-width="0.998" stroke-linejoin="round"/>
<path d="M171.771 134.047C175.412 136.779 178.332 140.366 180.273 144.494C179.539 145.519 177.125 147.993 177.125 147.993C176.656 142.937 174.803 138.11 171.771 134.047Z" fill="#656565"/>
<path d="M43.5859 214.87C43.5859 214.87 41.4868 218.674 40.6464 218.997C39.8061 219.321 31.2671 214.116 30.2896 211.101C30.2504 210.645 30.3349 210.186 30.534 209.773C34.1801 212.915 38.7845 214.713 43.5859 214.87Z" fill="#656565" stroke="#656565" stroke-width="0.998" stroke-linejoin="round"/>
<path d="M189.295 118.138L182.804 97.1119C182.676 96.7065 182.712 96.2669 182.904 95.8879C183.096 95.5089 183.428 95.2208 183.83 95.0859L215.05 84.9416C215.248 84.878 215.458 84.8548 215.665 84.8734C215.873 84.8921 216.075 84.9522 216.259 85.0502C216.443 85.1482 216.606 85.2822 216.738 85.4442C216.87 85.6063 216.968 85.7932 217.028 85.994L231.862 134.032C231.99 134.438 231.954 134.877 231.762 135.256C231.57 135.635 231.238 135.923 230.836 136.058L199.614 146.202C199.415 146.265 199.206 146.288 198.999 146.27C198.791 146.251 198.589 146.191 198.405 146.093C198.221 145.995 198.058 145.861 197.926 145.699C197.794 145.537 197.695 145.35 197.636 145.15L190.323 121.465" stroke="#656565" stroke-miterlimit="10"/>
<path d="M188.435 123.17L193.131 138.383L197.809 153.527C197.879 153.763 197.994 153.983 198.15 154.174C198.305 154.365 198.497 154.523 198.714 154.638C198.931 154.754 199.168 154.824 199.413 154.847C199.657 154.869 199.904 154.842 200.138 154.767L235.225 143.366C235.699 143.207 236.091 142.868 236.317 142.421C236.543 141.974 236.585 141.455 236.434 140.978L218.111 81.6522C218.041 81.4156 217.926 81.1953 217.77 81.0043C217.615 80.8133 217.423 80.6554 217.206 80.5399C216.989 80.4244 216.752 80.3535 216.507 80.3316C216.262 80.3096 216.016 80.337 215.782 80.412L180.694 91.8132C180.221 91.9717 179.828 92.3112 179.602 92.7583C179.376 93.2054 179.334 93.724 179.485 94.2019L187.165 119.075" stroke="#656565" stroke-miterlimit="10"/>
<path d="M195.394 108.493L217.615 101.23C217.844 101.152 218.033 100.987 218.142 100.77C218.252 100.554 218.272 100.303 218.199 100.071L215.264 90.617C215.23 90.5028 215.173 90.3966 215.098 90.3045C215.022 90.2125 214.929 90.1364 214.824 90.0808C214.719 90.0251 214.604 89.9909 214.485 89.9802C214.367 89.9695 214.248 89.9825 214.134 90.0184L191.911 97.2806C191.682 97.359 191.493 97.5242 191.384 97.7409C191.275 97.9575 191.255 98.2084 191.327 98.44L194.262 107.893C194.297 108.008 194.354 108.114 194.429 108.206C194.505 108.299 194.598 108.375 194.704 108.431C194.809 108.486 194.924 108.521 195.043 108.531C195.161 108.542 195.281 108.529 195.394 108.493Z" fill="#F91942" stroke="#F91942" stroke-miterlimit="10"/>
<path d="M199.012 122.034L218.663 115.611C218.892 115.533 219.082 115.368 219.192 115.152C219.302 114.936 219.323 114.685 219.251 114.453L216.316 104.999C216.282 104.885 216.225 104.778 216.149 104.686C216.073 104.593 215.98 104.517 215.875 104.461C215.77 104.405 215.654 104.37 215.536 104.359C215.417 104.348 215.297 104.361 215.184 104.397L192.961 111.663C192.732 111.741 192.543 111.905 192.434 112.122C192.325 112.338 192.305 112.589 192.378 112.82L194.085 118.317" stroke="#F91942" stroke-miterlimit="10"/>
<path d="M222.535 121.248C222.057 121.248 221.671 120.851 221.671 120.362C221.671 119.873 222.057 119.477 222.535 119.477C223.012 119.477 223.398 119.873 223.398 120.362C223.398 120.851 223.012 121.248 222.535 121.248Z" stroke="#656565" stroke-miterlimit="10" stroke-linecap="round"/>
<path d="M219.089 122.506C218.612 122.506 218.225 122.109 218.225 121.62C218.225 121.131 218.612 120.734 219.089 120.734C219.566 120.734 219.953 121.131 219.953 121.62C219.953 122.109 219.566 122.506 219.089 122.506Z" stroke="#656565" stroke-miterlimit="10" stroke-linecap="round"/>
<path d="M215.628 123.771C215.151 123.771 214.764 123.382 214.764 122.903C214.764 122.424 215.151 122.035 215.628 122.035C216.105 122.035 216.492 122.424 216.492 122.903C216.492 123.382 216.105 123.771 215.628 123.771Z" stroke="#656565" stroke-width="0.99" stroke-miterlimit="10" stroke-linecap="round"/>
<path d="M216.51 147.061C215.553 147.061 214.778 146.266 214.778 145.284C214.778 144.303 215.553 143.508 216.51 143.508C217.467 143.508 218.242 144.303 218.242 145.284C218.242 146.266 217.467 147.061 216.51 147.061Z" stroke="#656565" stroke-miterlimit="10"/>
</svg>
