<svg width="590" height="485" viewBox="0 0 590 485" fill="none" xmlns="http://www.w3.org/2000/svg">
<path d="M590 0H0V485H590V0Z" fill="white"/>
<path d="M92.8342 53.2383L82.3008 64.8802L87.567 86.2506L107.037 80.9765L111.186 65.3585L97.4428 65.04L95.0638 72.0572" stroke="#656565" stroke-linecap="round" stroke-linejoin="round"/>
<path d="M499.796 86.4481C504.542 86.4481 508.389 82.6035 508.389 77.8608C508.389 73.1181 504.542 69.2734 499.796 69.2734C495.05 69.2734 491.203 73.1181 491.203 77.8608C491.203 82.6035 495.05 86.4481 499.796 86.4481Z" stroke="#656565" stroke-linecap="round" stroke-linejoin="round"/>
<path d="M153.93 311.506L166.511 301.383L165.775 315.423L153.93 311.506Z" fill="#F91942" stroke="#F91942" stroke-linejoin="round"/>
<path d="M418.709 146.454C423.439 146.454 427.274 142.622 427.274 137.895C427.274 133.168 423.439 129.336 418.709 129.336C413.979 129.336 410.145 133.168 410.145 137.895C410.145 142.622 413.979 146.454 418.709 146.454Z" fill="#F91942"/>
<path d="M160.16 125.776C163.665 125.776 166.507 122.936 166.507 119.433C166.507 115.93 163.665 113.09 160.16 113.09C156.654 113.09 153.812 115.93 153.812 119.433C153.812 122.936 156.654 125.776 160.16 125.776Z" fill="#656565"/>
<path d="M259.793 325.237V307.414C259.793 307.382 259.784 307.35 259.767 307.32C259.75 307.29 259.724 307.263 259.692 307.24C259.659 307.217 259.621 307.199 259.579 307.186C259.536 307.174 259.491 307.168 259.445 307.168H230.641C230.595 307.168 230.55 307.174 230.508 307.187C230.465 307.199 230.427 307.217 230.395 307.24C230.362 307.263 230.337 307.29 230.319 307.32C230.302 307.35 230.293 307.382 230.293 307.414V325.237" fill="#F91942"/>
<path d="M259.793 325.237V307.414C259.793 307.382 259.784 307.35 259.767 307.32C259.75 307.29 259.724 307.263 259.692 307.24C259.659 307.217 259.621 307.199 259.579 307.186C259.536 307.174 259.491 307.168 259.445 307.168H230.641C230.595 307.168 230.55 307.174 230.508 307.187C230.465 307.199 230.427 307.217 230.395 307.24C230.362 307.263 230.337 307.29 230.319 307.32C230.302 307.35 230.293 307.382 230.293 307.414V325.237" stroke="#656565" stroke-miterlimit="10" stroke-linecap="round"/>
<path d="M304.52 325.237V307.414C304.52 307.382 304.511 307.35 304.494 307.32C304.476 307.29 304.451 307.263 304.418 307.24C304.386 307.217 304.347 307.199 304.305 307.186C304.263 307.174 304.218 307.168 304.172 307.168H275.367C275.322 307.168 275.276 307.174 275.234 307.187C275.192 307.199 275.153 307.217 275.121 307.24C275.089 307.263 275.063 307.29 275.046 307.32C275.028 307.35 275.019 307.382 275.02 307.414V325.237" fill="#F91942"/>
<path d="M304.52 325.237V307.414C304.52 307.382 304.511 307.35 304.494 307.32C304.476 307.29 304.451 307.263 304.418 307.24C304.386 307.217 304.347 307.199 304.305 307.186C304.263 307.174 304.218 307.168 304.172 307.168H275.367C275.322 307.168 275.276 307.174 275.234 307.187C275.192 307.199 275.153 307.217 275.121 307.24C275.089 307.263 275.063 307.29 275.046 307.32C275.028 307.35 275.019 307.382 275.02 307.414V325.237" stroke="#656565" stroke-miterlimit="10" stroke-linecap="round"/>
<path d="M348.293 325.237V307.414C348.293 307.382 348.284 307.35 348.267 307.32C348.249 307.29 348.224 307.263 348.191 307.24C348.159 307.217 348.121 307.199 348.078 307.187C348.036 307.174 347.991 307.168 347.945 307.168H319.141C319.095 307.168 319.05 307.174 319.007 307.186C318.965 307.199 318.927 307.217 318.894 307.24C318.862 307.263 318.836 307.29 318.819 307.32C318.801 307.35 318.793 307.382 318.793 307.414V325.237" fill="#F91942"/>
<path d="M348.293 325.237V307.414C348.293 307.382 348.284 307.35 348.267 307.32C348.249 307.29 348.224 307.263 348.191 307.24C348.159 307.217 348.121 307.199 348.078 307.187C348.036 307.174 347.991 307.168 347.945 307.168H319.141C319.095 307.168 319.05 307.174 319.007 307.186C318.965 307.199 318.927 307.217 318.894 307.24C318.862 307.263 318.836 307.29 318.819 307.32C318.801 307.35 318.793 307.382 318.793 307.414V325.237" stroke="#656565" stroke-miterlimit="10" stroke-linecap="round"/>
<path d="M373.654 200.312H205.461C205.169 200.312 204.88 200.37 204.611 200.482C204.341 200.593 204.096 200.757 203.889 200.963C203.683 201.169 203.519 201.414 203.407 201.684C203.296 201.953 203.238 202.242 203.238 202.534V329.797C203.238 330.089 203.296 330.378 203.407 330.647C203.519 330.917 203.683 331.162 203.889 331.368C204.096 331.574 204.341 331.738 204.611 331.849C204.88 331.961 205.169 332.019 205.461 332.019H373.654C373.946 332.019 374.235 331.961 374.505 331.849C374.774 331.738 375.019 331.574 375.226 331.368C375.432 331.162 375.596 330.917 375.708 330.647C375.82 330.378 375.877 330.089 375.877 329.797V202.534C375.877 202.242 375.82 201.953 375.708 201.684C375.596 201.414 375.432 201.169 375.226 200.963C375.019 200.757 374.774 200.593 374.505 200.482C374.235 200.37 373.946 200.312 373.654 200.312ZM371.518 322.497C371.518 323.038 371.303 323.556 370.92 323.938C370.538 324.321 370.019 324.535 369.478 324.535H209.635C209.094 324.535 208.575 324.321 208.193 323.938C207.811 323.556 207.596 323.038 207.596 322.497V209.83C207.596 209.289 207.811 208.771 208.193 208.389C208.575 208.007 209.094 207.792 209.635 207.792H369.481C370.022 207.792 370.541 208.007 370.923 208.389C371.306 208.771 371.52 209.289 371.52 209.83L371.518 322.497Z" fill="#FC91A3"/>
<path d="M251.172 287.527H321.97" stroke="#656565" stroke-miterlimit="10" stroke-linecap="round"/>
<path d="M311.891 294.328H261.516" stroke="#656565" stroke-miterlimit="10" stroke-linecap="round"/>
<path d="M357.641 233.375H220.945V275.01H357.641V233.375Z" stroke="#F91942" stroke-miterlimit="10" stroke-linecap="round"/>
<path d="M312.032 298.414H261.656" stroke="#656565" stroke-miterlimit="10" stroke-linecap="round"/>
<path d="M253.628 261.945L221.062 275.007" stroke="#F91942" stroke-miterlimit="10" stroke-linecap="round"/>
<path d="M357.436 233.375L333.133 246.709" stroke="#F91942" stroke-miterlimit="10" stroke-linecap="round"/>
<path d="M264.789 248.062H315.165" stroke="#656565" stroke-miterlimit="10" stroke-linecap="round"/>
<path d="M302.638 252.961H275.953" stroke="#656565" stroke-miterlimit="10" stroke-linecap="round"/>
<path d="M299.37 262.492H279.492V268.207H299.37V262.492Z" fill="#F91942" stroke="#FC91A3" stroke-miterlimit="10" stroke-linecap="round"/>
<path d="M236.184 216.773H217.668V221.4H236.184V216.773Z" stroke="#F91942" stroke-miterlimit="10" stroke-linecap="round"/>
<path d="M309.766 218.137H321.202" stroke="#656565" stroke-miterlimit="10" stroke-linecap="round"/>
<path d="M328.148 218.137H339.585" stroke="#656565" stroke-miterlimit="10" stroke-linecap="round"/>
<path d="M346.391 218.137H357.827" stroke="#656565" stroke-miterlimit="10" stroke-linecap="round"/>
<path d="M288.631 381.238C338.134 381.238 378.263 378.182 378.263 374.412C378.263 370.642 338.134 367.586 288.631 367.586C239.129 367.586 199 370.642 199 374.412C199 378.182 239.129 381.238 288.631 381.238Z" fill="#656565"/>
<path d="M386.116 60.1016H191.383V67.1379H386.116V60.1016Z" fill="#656565" stroke="#656565" stroke-linejoin="round"/>
<path d="M230.295 67.2891H229.344V129.697H230.295V67.2891Z" fill="#F91942"/>
<path d="M229.509 118.25H229.953C231.031 118.25 232.064 118.678 232.826 119.439C233.588 120.201 234.016 121.234 234.016 122.311V123.452H225.445V122.311C225.445 121.234 225.873 120.201 226.635 119.439C227.397 118.678 228.431 118.25 229.509 118.25V118.25Z" fill="#F91942" stroke="#F91942"/>
<path d="M228.482 137.523H230.832C231.555 137.524 232.248 137.812 232.759 138.323C233.27 138.834 233.557 139.527 233.557 140.25V140.303C233.557 141.026 233.27 141.719 232.759 142.23C232.248 142.741 231.555 143.029 230.832 143.03H228.482C227.759 143.03 227.065 142.742 226.553 142.231C226.041 141.72 225.754 141.026 225.754 140.303V140.25C225.754 139.527 226.041 138.833 226.553 138.322C227.065 137.811 227.759 137.523 228.482 137.523V137.523Z" fill="#F91942" stroke="#F91942"/>
<path d="M228.515 121.516H230.942C235.409 121.516 239.693 123.289 242.852 126.446C246.011 129.602 247.786 133.884 247.786 138.348V140.135C247.786 140.333 247.707 140.524 247.566 140.664C247.426 140.804 247.235 140.883 247.037 140.883H212.421C212.223 140.883 212.033 140.805 211.893 140.665C211.752 140.526 211.673 140.337 211.672 140.139V138.348C211.672 133.884 213.446 129.602 216.605 126.446C219.764 123.289 224.048 121.516 228.515 121.516V121.516Z" fill="#F91942" stroke="#F91942"/>
<path d="M219.477 145.633L218.559 149.304" stroke="#F91942" stroke-miterlimit="10" stroke-linecap="round"/>
<path d="M229.734 147V150.671" stroke="#F91942" stroke-miterlimit="10" stroke-linecap="round"/>
<path d="M239.367 146.637L240.592 149.696" stroke="#F91942" stroke-miterlimit="10" stroke-linecap="round"/>
<path d="M286.432 67.2891H285.48V129.697H286.432V67.2891Z" fill="#FC91A3"/>
<path d="M289.735 123.452H281.164V122.311C281.164 121.234 281.592 120.201 282.354 119.439C283.116 118.678 284.15 118.25 285.227 118.25H285.672C286.75 118.25 287.783 118.678 288.545 119.439C289.307 120.201 289.735 121.234 289.735 122.311V123.452Z" fill="#FC91A3" stroke="#FC91A3"/>
<path d="M284.197 137.523H286.547C287.27 137.524 287.963 137.812 288.474 138.323C288.985 138.834 289.272 139.527 289.272 140.25V140.303C289.272 141.026 288.985 141.719 288.474 142.23C287.963 142.741 287.27 143.029 286.547 143.03H284.197C283.473 143.03 282.779 142.742 282.268 142.231C281.756 141.72 281.469 141.026 281.469 140.303V140.25C281.469 139.527 281.756 138.833 282.268 138.322C282.779 137.811 283.473 137.523 284.197 137.523V137.523Z" fill="#FC91A3" stroke="#FC91A3"/>
<path d="M284.23 121.516H286.657C291.124 121.516 295.408 123.289 298.567 126.446C301.726 129.602 303.5 133.884 303.5 138.348V140.135C303.5 140.333 303.422 140.524 303.281 140.664C303.141 140.804 302.95 140.883 302.752 140.883H268.136C267.938 140.883 267.748 140.805 267.607 140.665C267.467 140.526 267.388 140.337 267.387 140.139V138.348C267.387 133.884 269.161 129.602 272.32 126.446C275.479 123.289 279.763 121.516 284.23 121.516V121.516Z" fill="#FC91A3" stroke="#FC91A3"/>
<path d="M275.192 145.629L274.273 149.3" stroke="#FC91A3" stroke-miterlimit="10" stroke-linecap="round"/>
<path d="M286.066 146.773V150.444" stroke="#FC91A3" stroke-miterlimit="10" stroke-linecap="round"/>
<path d="M294.609 145.551L295.834 148.61" stroke="#FC91A3" stroke-miterlimit="10" stroke-linecap="round"/>
<path d="M341.631 67.2891H340.68V129.697H341.631V67.2891Z" fill="#656565"/>
<path d="M344.837 123.452H336.266V122.311C336.266 121.234 336.694 120.201 337.456 119.439C338.218 118.678 339.251 118.25 340.329 118.25H340.773C341.851 118.25 342.885 118.678 343.647 119.439C344.409 120.201 344.837 121.234 344.837 122.311V123.452Z" fill="#656565" stroke="#656565"/>
<path d="M339.302 137.523H341.652C342.375 137.524 343.068 137.812 343.579 138.323C344.09 138.834 344.377 139.527 344.377 140.25V140.303C344.377 141.026 344.09 141.719 343.579 142.23C343.068 142.741 342.375 143.029 341.652 143.03H339.302C338.579 143.03 337.885 142.742 337.373 142.231C336.862 141.72 336.574 141.026 336.574 140.303V140.25C336.574 139.527 336.862 138.833 337.373 138.322C337.885 137.811 338.579 137.523 339.302 137.523V137.523Z" stroke="#656565"/>
<path d="M339.336 121.516H341.762C346.23 121.516 350.514 123.289 353.673 126.446C356.831 129.602 358.606 133.884 358.606 138.348V140.135C358.606 140.333 358.527 140.524 358.387 140.664C358.246 140.804 358.056 140.883 357.857 140.883H323.241C323.043 140.883 322.853 140.805 322.713 140.665C322.573 140.526 322.493 140.337 322.492 140.139V138.348C322.492 133.884 324.267 129.602 327.426 126.446C330.584 123.289 334.869 121.516 339.336 121.516V121.516Z" fill="#656565" stroke="#656565"/>
<path d="M330.297 145.633L329.379 149.304" stroke="#656565" stroke-miterlimit="10" stroke-linecap="round"/>
<path d="M341.172 147.109V150.78" stroke="#656565" stroke-miterlimit="10" stroke-linecap="round"/>
<path d="M351.641 146.082L352.865 149.141" stroke="#656565" stroke-miterlimit="10" stroke-linecap="round"/>
<path d="M503.163 407.647H465.604C465.228 407.647 464.868 407.498 464.602 407.232C464.336 406.966 464.186 406.606 464.186 406.23L461.836 367.706C461.836 367.33 461.985 366.97 462.251 366.704C462.517 366.438 462.878 366.289 463.254 366.289H505.513C505.889 366.289 506.25 366.438 506.516 366.704C506.782 366.97 506.931 367.33 506.931 367.706L504.58 406.23C504.58 406.606 504.431 406.966 504.165 407.232C503.899 407.498 503.539 407.647 503.163 407.647Z" fill="#656565" stroke="#656565"/>
<path d="M484.381 367.682C484.381 367.682 495.515 324.662 496.647 310.801C498.534 287.631 485.143 248.062 482.005 232.951C477.484 211.174 482.933 182.789 482.933 182.789" stroke="#656565" stroke-miterlimit="10"/>
<path d="M519.993 196.5C519.993 196.5 517.746 207.311 507.336 217.578C500.675 224.149 483.516 230.482 484.325 242.398" stroke="#656565" stroke-miterlimit="10"/>
<path d="M555.156 250.793C555.156 250.793 549.128 267.591 534.982 276.858C527.152 281.994 500.343 292.535 496.828 303.95" stroke="#656565" stroke-miterlimit="10" stroke-linecap="round"/>
<path d="M533.21 183.617C530.545 183.388 524.605 185.729 521.384 189.228C518.919 191.903 518.823 195.108 519.683 196.889C521.889 198.085 533.673 187.788 533.21 183.617Z" fill="#F91942" stroke="#656565"/>
<path d="M515.564 207.402C513.138 206.451 509.103 201.624 507.984 196.883C507.598 195.467 507.599 193.973 507.987 192.558C508.374 191.142 509.134 189.856 510.187 188.834C512.678 188.654 517.969 203.626 515.564 207.402Z" fill="#F91942" stroke="#656565"/>
<path d="M492.722 227.648C495.006 226.483 498.493 221.356 499.127 216.598C499.367 215.172 499.221 213.708 498.703 212.359C498.185 211.009 497.314 209.822 496.182 208.922C493.721 208.989 489.994 224.182 492.722 227.648Z" fill="#F91942" stroke="#656565"/>
<path d="M509.738 271.742C507.337 273.151 503.875 278.906 503.47 284.072C503.293 285.619 503.537 287.186 504.177 288.606C504.816 290.026 505.827 291.248 507.103 292.142C509.757 291.903 512.888 275.291 509.738 271.742Z" fill="#F91942" stroke="#656565"/>
<path d="M539.175 257.383C538.539 258.843 538.889 262.675 540.465 265.207C540.913 265.985 541.561 266.629 542.342 267.072C543.123 267.516 544.009 267.741 544.907 267.727C546.061 266.724 541.852 257.97 539.175 257.383Z" fill="#F91942" stroke="#656565"/>
<path d="M517.906 257.383C517.27 258.843 520.666 264.906 523.026 267.01C524.729 268.531 527.257 269.017 528.72 268.335C529.205 259.744 520.582 257.97 517.906 257.383Z" fill="#F91942" stroke="#656565"/>
<path d="M524.318 227.379C523.211 228.52 524.472 235.518 526.054 238.386C527.196 240.456 529.486 241.862 531.134 241.764C534.486 233.828 526.717 228.932 524.318 227.379Z" fill="#F91942" stroke="#656565"/>
<path d="M412.695 266.921C412.981 268.485 419.412 271.526 422.667 271.906C425.018 272.179 427.493 271.136 428.37 269.738C423.857 262.4 415.354 265.873 412.695 266.921Z" fill="#F91942" stroke="#656565"/>
<path d="M432.859 289.972C433.232 290.993 439.683 291.09 442.877 290.314C445.184 289.755 447.534 288.222 448.306 286.943C443.468 283.176 435.389 288.375 432.859 289.972Z" fill="#F91942" stroke="#656565"/>
<path d="M457.109 306.321C457.479 307.401 464.952 307.111 468.703 306.076C471.412 305.33 474.231 303.525 475.204 302.098C469.826 298.322 460.139 304.437 457.109 306.321Z" fill="#F91942" stroke="#656565"/>
<path d="M552.558 240.453C551.701 243.101 551.509 245.919 551.999 248.659C552.178 249.348 552.572 249.961 553.124 250.411C553.676 250.86 554.356 251.122 555.067 251.159C556.739 249.821 554.979 240.725 552.558 240.453Z" fill="#F91942" stroke="#656565"/>
<path d="M466.758 212.859C466.986 214.961 469.92 219.146 473.402 221.028C474.431 221.63 475.603 221.946 476.795 221.943C477.988 221.939 479.158 221.616 480.183 221.008C480.853 219.094 470.228 211.774 466.758 212.859Z" fill="#F91942" stroke="#656565"/>
<path d="M487.026 281.07C486.79 282.889 488.198 287.024 490.467 289.333C491.092 290.044 491.913 290.555 492.827 290.803C493.741 291.051 494.708 291.024 495.606 290.725C496.481 289.25 489.862 280.876 487.026 281.07Z" fill="#F91942" stroke="#656565"/>
<path d="M470.727 194.473C470.704 196.136 472.592 199.682 475.13 201.484C475.875 202.052 476.76 202.411 477.691 202.522C478.622 202.634 479.566 202.494 480.425 202.117C481.127 200.687 473.54 193.958 470.727 194.473Z" fill="#F91942" stroke="#656565"/>
<path d="M475.161 169.75C474.505 171.624 475.298 176.355 477.488 179.355C478.117 180.281 478.982 181.022 479.994 181.501C481.007 181.979 482.129 182.178 483.244 182.077C484.582 180.724 478.544 170.232 475.161 169.75Z" fill="#F91942" stroke="#656565"/>
<path d="M519.993 230.401C519.628 227.751 516.033 222.479 511.911 220.111C508.755 218.298 505.606 218.912 504.058 220.142C503.374 222.557 516.023 231.773 519.993 230.401Z" fill="#F91942" stroke="#656565"/>
<path d="M498.384 246.652C496.213 246.713 491.64 249.148 489.364 252.263C488.649 253.14 488.205 254.207 488.087 255.332C487.968 256.457 488.181 257.592 488.697 258.599C490.587 259.363 499.143 249.974 498.384 246.652Z" fill="#F91942" stroke="#656565"/>
<path d="M565.874 263.687C564.854 261.77 560.64 258.758 556.834 258.105C555.73 257.855 554.577 257.931 553.516 258.326C552.455 258.72 551.532 259.415 550.859 260.325C551.014 262.356 563.233 265.842 565.874 263.687Z" fill="#F91942" stroke="#656565"/>
<path d="M461.389 278.344C459.715 279.728 457.612 284.461 457.74 288.316C457.717 289.447 458.024 290.56 458.624 291.52C459.225 292.479 460.092 293.243 461.119 293.717C463.079 293.156 464.032 280.493 461.389 278.344Z" fill="#F91942" stroke="#656565"/>
<path d="M478.635 287.484C480.742 290.407 483.858 297.954 484.315 302.855C484.667 306.608 482.965 307.882 481.343 307.56C479.043 305.51 475.985 288.478 478.635 287.484Z" fill="#F91942" stroke="#656565"/>
<path d="M437.266 278.885C438.694 277.533 440.294 273.138 439.941 269.672C439.892 268.651 439.546 267.666 438.946 266.839C438.346 266.011 437.518 265.376 436.562 265.012C434.83 265.636 434.75 277.109 437.266 278.885Z" fill="#F91942" stroke="#656565"/>
<path d="M426.049 266.539C427.335 264.96 428.561 260.309 427.946 256.903C427.475 254.297 425.674 252.964 424.278 252.797C422.632 253.702 423.45 265.175 426.049 266.539Z" fill="#F91942" stroke="#656565"/>
<path d="M546.156 228.488C543.955 227.884 538.588 229.205 535.315 232.002C534.298 232.816 533.515 233.885 533.045 235.099C532.575 236.313 532.434 237.63 532.637 238.916C534.292 240.362 545.864 232.457 546.156 228.488Z" fill="#F91942" stroke="#656565"/>
<path d="M546.81 285.714C546.439 283.575 543.374 279.4 539.964 277.595C538.993 277.013 537.874 276.726 536.742 276.77C535.611 276.814 534.517 277.186 533.595 277.841C533.107 279.819 543.629 286.939 546.81 285.714Z" fill="#F91942" stroke="#656565"/>
<path d="M529.418 255.858C531.469 256.574 536.61 255.927 539.846 253.824C540.827 253.259 541.621 252.42 542.133 251.411C542.644 250.402 542.85 249.265 542.725 248.141C541.232 246.758 529.892 252.489 529.418 255.858Z" fill="#F91942" stroke="#656565"/>
<path d="M525.385 301.875C526.211 299.385 525.327 293.188 522.721 289.322C520.728 286.362 518.329 286.524 516.432 286.938C514.788 288.766 518.521 301.39 525.385 301.875Z" fill="#F91942" stroke="#656565"/>
<path d="M515.973 308.49C516.443 306.778 513.714 302.604 509.286 300.058C506.566 298.545 503.399 298.038 500.341 298.625C498.62 299.912 506.745 308.357 515.973 308.49Z" fill="#F91942" stroke="#656565"/>
<path d="M488.014 203.594C486.356 203.64 482.862 205.496 481.125 207.879C480.578 208.549 480.24 209.363 480.149 210.223C480.059 211.082 480.221 211.949 480.616 212.717C482.059 213.304 488.594 206.13 488.014 203.594Z" fill="#F91942" stroke="#656565"/>
<path d="M446.068 202.82C444.678 203.847 442.799 207.518 442.732 210.588C442.664 211.486 442.86 212.384 443.295 213.173C443.73 213.962 444.385 214.607 445.181 215.029C446.763 214.67 448.075 204.644 446.068 202.82Z" fill="#F91942" stroke="#656565"/>
<path d="M458.507 213.477C456.438 213.499 452.036 215.689 449.802 218.549C449.105 219.342 448.66 220.324 448.524 221.37C448.389 222.416 448.568 223.479 449.04 224.423C450.821 225.162 459.156 216.568 458.507 213.477Z" fill="#F91942" stroke="#656565"/>
<path d="M440.344 228.108C441.041 230.054 444.555 233.499 447.987 234.669C448.964 235.069 450.039 235.168 451.073 234.955C452.106 234.741 453.053 234.224 453.792 233.47C453.907 231.543 443.058 226.477 440.344 228.108Z" fill="#F91942" stroke="#656565"/>
<path d="M442.73 256.616C444.648 257.394 449.558 257.073 452.722 255.298C453.672 254.836 454.462 254.102 454.992 253.189C455.522 252.277 455.768 251.227 455.698 250.174C454.337 248.804 443.324 253.507 442.73 256.616Z" fill="#F91942" stroke="#656565"/>
<path d="M429.648 242.781C430.592 243.961 433.944 245.382 436.739 245.213C437.578 245.194 438.396 244.947 439.105 244.498C439.815 244.05 440.388 243.417 440.765 242.667C440.424 241.267 431.292 240.831 429.648 242.781Z" fill="#F91942" stroke="#656565"/>
<path d="M421.594 235.773C422.538 236.952 425.889 238.373 428.684 238.204C429.523 238.185 430.341 237.938 431.051 237.489C431.76 237.041 432.334 236.408 432.71 235.658C432.373 234.251 423.241 233.821 421.594 235.773Z" fill="#F91942" stroke="#656565"/>
<path d="M472.352 267.146C473.913 268.503 478.662 269.792 482.229 269.138C483.276 269.008 484.261 268.569 485.057 267.878C485.854 267.186 486.427 266.274 486.702 265.256C485.864 263.514 473.924 264.398 472.352 267.146Z" fill="#F91942" stroke="#656565"/>
<path d="M434.875 212.513C435.376 213.94 438.05 216.412 440.715 217.203C441.5 217.47 442.344 217.516 443.153 217.333C443.962 217.151 444.705 216.749 445.3 216.172C445.438 214.739 437.045 211.237 434.875 212.513Z" fill="#F91942" stroke="#656565"/>
<path d="M464.887 245.707C468.534 244.923 469.36 241.363 469.604 238.049C469.62 236.943 469.345 235.853 468.806 234.887C468.268 233.921 467.486 233.112 466.537 232.543C464.801 232.886 462.812 243.678 464.887 245.707Z" fill="#F91942" stroke="#656565"/>
<path d="M454.914 249.578C457.18 247.594 456.362 244.758 455.234 242.322C454.81 241.536 454.187 240.874 453.428 240.404C452.668 239.933 451.798 239.67 450.905 239.641C449.814 240.564 452.652 248.961 454.914 249.578Z" fill="#F91942" stroke="#656565"/>
<path d="M434.895 237.964C437.593 236.035 437.006 232.839 436.037 230.048C435.658 229.141 435.048 228.348 434.267 227.75C433.485 227.152 432.561 226.77 431.586 226.641C430.287 227.533 432.484 237.041 434.895 237.964Z" fill="#F91942" stroke="#656565"/>
<path d="M479.584 257.884C483.21 256.825 482.966 252.967 482.184 249.405C481.799 248.158 481.156 247.005 480.296 246.022C479.437 245.039 478.38 244.248 477.194 243.699C475.457 244.171 476.741 255.839 479.584 257.884Z" fill="#F91942" stroke="#656565"/>
<path d="M492.299 187.86C490.849 187.055 486.895 186.875 484.187 188.037C483.375 188.335 482.668 188.863 482.152 189.557C481.636 190.25 481.333 191.079 481.281 191.941C482.224 193.177 491.503 190.336 492.299 187.86Z" fill="#F91942" stroke="#656565"/>
<path d="M493.549 178.574C492.099 177.77 488.145 177.59 485.437 178.752C484.625 179.05 483.918 179.578 483.402 180.272C482.886 180.965 482.583 181.793 482.531 182.656C483.478 183.892 492.757 181.052 493.549 178.574Z" fill="#F91942" stroke="#656565"/>
<path d="M533.279 236.441C531.783 239.909 530.671 243.529 529.965 247.239C529.096 252.727 529.264 263.998 528.96 266.779C528.655 269.559 526.124 281.656 522.578 283.531" stroke="#656565" stroke-miterlimit="10"/>
<path d="M444.914 214.531C444.914 214.531 450.942 230.983 456.738 238.164C462.534 245.345 475.981 254.36 479.46 257.383C482.938 260.407 491.662 270.685 492.158 272.904" stroke="#656565" stroke-miterlimit="10"/>
<path d="M432.508 235.695C432.624 236.398 452.447 254.762 471.893 251.587" stroke="#656565" stroke-miterlimit="10" stroke-linecap="round"/>
<path d="M426.016 266.199C429.417 272.339 438.56 281.066 447.069 286.029C455.653 291.036 474.41 300.606 480.471 306.397C486.532 312.189 495.069 324.396 492.817 332.411" stroke="#656565" stroke-miterlimit="10"/>
<path d="M101.032 139.843C101.032 139.843 105.281 141.967 108.115 141.967C112.01 141.967 113.071 138.782 111.655 136.659C110.593 135.244 108.879 135.083 107.052 134.535C103.511 133.474 96.7827 130.289 91.4708 131.35C84.3889 132.766 81.91 140.905 82.6208 145.506C83.3317 150.106 85.095 154.35 85.095 156.475C85.095 158.601 85.095 161.076 85.449 161.43C85.803 161.784 87.574 160.014 88.636 158.245C89.4505 156.888 90.4069 155.414 90.0529 154.352C89.6989 153.289 86.866 151.521 88.636 149.043C89.6656 147.603 91.4689 147.627 92.1769 149.043C93.0951 151.167 93.5769 153.453 93.5939 155.767C93.5939 158.239 92.8859 161.429 93.5939 163.906C94.3019 166.383 100.322 172.75 103.863 173.461C107.404 174.171 109.883 173.461 110.239 170.988C110.594 168.516 109.885 164.617 110.239 164.264C110.593 163.911 110.281 163.306 109.53 163.556C108.999 163.733 107.937 163.733 107.937 163.379C107.937 162.672 108.114 162.495 109.884 162.495C111.654 162.495 112.009 161.787 111.654 161.079C111.299 160.37 110.238 159.31 108.113 159.663C105.988 160.016 105.988 161.433 104.217 161.079C102.446 160.725 100.321 156.478 98.5508 155.77C96.7808 155.063 95.3639 154.354 95.3639 151.524C95.3639 148.694 97.4888 146.924 98.5508 145.862C99.3998 145.033 100.116 144.078 100.676 143.031C100.934 141.989 101.054 140.917 101.032 139.843Z" fill="#656565"/>
<path d="M109.353 141.258C109.671 142.778 109.908 144.313 110.061 145.859C110.061 146.921 109.707 150.106 110.061 151.167C110.415 152.228 112.536 157.538 112.536 158.244C112.536 158.95 109.703 160.368 109.703 160.368C109.703 160.368 106.87 161.784 106.87 163.199C106.87 164.614 107.932 166.385 106.162 167.092C104.392 167.8 99.0798 169.565 99.0798 169.565C98.8426 170.367 98.7233 171.2 98.7258 172.037V174.868L83.5 167.083C83.5 167.083 85.271 166.021 85.625 159.297C85.979 152.572 81.376 143.018 85.625 138.772C89.8739 134.526 93.7698 134.171 98.7277 135.233C103.686 136.295 109.353 141.258 109.353 141.258Z" stroke="#656565" stroke-miterlimit="10"/>
<path d="M71.7193 265.438C71.6125 267.434 71.6264 269.434 71.7611 271.429C76.346 274.454 96.604 276.432 114.183 273.407C114.944 272.069 114.519 268.346 114.519 268.346C114.519 268.346 81.0327 269.337 71.7193 265.438Z" stroke="#656565" stroke-linecap="round" stroke-linejoin="round"/>
<path d="M76.6768 273.196C76.3196 271.076 76.3908 268.905 76.8861 266.812" stroke="#656565" stroke-linecap="round" stroke-linejoin="round"/>
<path d="M83.4457 274.29C83.0741 272.09 83.1596 269.837 83.6969 267.672" stroke="#656565" stroke-linecap="round" stroke-linejoin="round"/>
<path d="M90.9201 274.833C90.6045 272.608 90.7503 270.342 91.3483 268.176" stroke="#656565" stroke-linecap="round" stroke-linejoin="round"/>
<path d="M99.043 268.414C99.5389 270.529 99.6003 272.722 99.2237 274.862" stroke="#656565" stroke-linecap="round" stroke-linejoin="round"/>
<path d="M107.65 268.453C107.713 270.473 107.398 272.487 106.723 274.391" stroke="#656565" stroke-linecap="round" stroke-linejoin="round"/>
<path d="M70.5765 266.534C68.1023 259.104 68.1022 241.407 68.1022 241.407C68.1022 241.407 59.9566 236.455 56.7706 229.731C53.5846 223.007 73.7664 190.456 74.1213 189.035C74.4763 187.614 75.1832 186.562 73.4141 185.85C71.6451 185.139 62.4352 177.007 65.0921 171.518C66.0799 169.477 69.1644 170.281 71.6424 169.925C74.1204 169.57 81.7739 165.464 84.6792 165.572C87.5845 165.681 96.4358 167.803 103.162 178.418C109.888 189.033 112.37 200.714 113.432 207.791C113.527 208.414 113.673 209.155 113.862 210.01C115.924 211.714 120.326 214.28 128.306 214.514C132.105 214.625 136.151 214.523 140.011 214.423C148.379 214.207 155.87 213.99 158.051 215.927C161.238 218.759 158.406 229.377 156.989 230.086C155.62 230.77 140.693 233.106 117.637 229.108C119.39 242.394 118.927 255.878 116.266 269.012C110.199 269.874 104.077 270.291 97.9488 270.259C86.0575 270.258 74.7502 268.851 70.5765 266.534Z" fill="#F91942"/>
<path d="M92.1737 198.234C92.1737 198.234 90.0488 208.496 86.5078 212.743C88.8412 210.418 90.8645 207.802 92.5277 204.959L92.1737 198.234Z" fill="#656565" stroke="#656565" stroke-linejoin="round"/>
<path d="M83.3271 218.758C83.3271 218.758 79.0781 222.651 79.0781 224.066C79.0781 225.481 81.9111 227.252 86.869 227.252C84.744 226.19 81.2031 224.779 81.2031 224.779C81.2031 224.779 84.39 219.819 83.3271 218.758Z" fill="#656565" stroke="#656565" stroke-linejoin="round"/>
<path d="M102.094 229.73C102.094 229.73 101.385 243.886 97.8438 245.656C101.031 247.071 101.385 246.363 101.385 246.363C101.385 246.363 104.927 237.516 102.094 229.73Z" fill="#656565" stroke="#656565" stroke-linejoin="round"/>
<path d="M69.3594 241.762C76.9073 245.552 85.4077 247.029 93.793 246.008V245.3C85.4806 246.174 77.0816 244.958 69.3594 241.762Z" fill="#656565" stroke="#656565" stroke-linejoin="round"/>
<path d="M74.2604 185.805C74.2254 185.782 74.189 185.758 74.1519 185.733C74.0052 185.636 73.8478 185.531 73.6875 185.443C74.0245 185.139 74.6629 184.695 75.0384 184.508C75.3321 184.362 75.8398 183.975 76.7867 183.247C76.7871 183.247 76.7876 183.246 76.788 183.246C76.5406 183.555 76.3217 183.84 76.1345 184.084C75.8825 184.412 75.6648 184.695 75.5525 184.808C75.0218 185.338 74.5419 185.664 74.2604 185.805Z" fill="#656565"/>
<path d="M74.2132 186.335C73.9237 186.174 73.4844 185.82 73.1564 185.729C72.5092 185.549 74.2719 184.358 74.8253 184.082C75.7434 183.626 80.8236 179.109 82.7697 179.109C82.8406 179.109 82.9077 179.115 82.9699 179.128C79.4288 179.836 76.5961 184.436 75.8881 185.144C75.1796 185.852 74.5275 186.247 74.2132 186.335Z" fill="#656565"/>
<path d="M158.481 216.578C158.481 216.578 159.499 224.824 155.57 230.322C157.011 230.214 158.368 229.604 159.405 228.599C159.766 227.703 161.51 218.847 158.481 216.578Z" fill="#656565" stroke="#656565" stroke-miterlimit="10"/>
<path d="M159.297 218.152C159.297 218.152 163.484 214.661 168.159 214.313C172.835 213.965 172.874 215.622 174.14 216.232C175.406 216.843 178.462 217.934 176.323 219.156C174.184 220.378 170.037 218.585 168.77 217.539" stroke="#656565" stroke-miterlimit="10" stroke-linecap="round"/>
<path d="M157.898 228.705C159.561 228.671 161.22 228.863 162.831 229.276C165.013 229.93 167.937 230.932 169.945 230.892C171.953 230.852 176.532 227.97 177.059 227.708C177.3 227.591 178.748 226.71 180.324 225.687C181.1 225.184 181.904 224.646 182.608 224.147C182.614 224.143 182.62 224.138 182.625 224.133" stroke="#656565" stroke-miterlimit="10"/>
<path d="M182.539 220.998C182.574 220.251 182.946 219.275 183.977 219.374C184.198 219.391 184.414 219.449 184.615 219.544C185.652 220.061 185.376 221.483 184.674 222.429C184.066 223.072 183.385 223.643 182.646 224.131L182.638 223.907V223.89L182.624 223.409" stroke="#656565" stroke-miterlimit="10"/>
<path d="M173.332 215.628L184.791 207.727L191.385 214.663L184.6 219.543" stroke="#656565" stroke-linecap="round" stroke-linejoin="round"/>
<path d="M169.685 218.145L165.723 220.877L172.217 228.449L177.334 224.769" stroke="#656565" stroke-linecap="round" stroke-linejoin="round"/>
<path d="M179.613 222.601C179.652 222.197 179.792 221.81 180.019 221.475C180.246 221.139 180.553 220.865 180.913 220.679C181.148 220.592 181.399 220.556 181.649 220.575C181.899 220.594 182.142 220.667 182.362 220.788C182.775 221.04 182.986 223.013 182.258 224.39" stroke="#656565" stroke-linecap="round" stroke-linejoin="round"/>
<path d="M71.8564 271.688L71.7422 396.62L88.4325 396.271L103.643 276.612" stroke="#656565" stroke-linecap="round" stroke-linejoin="round"/>
<path d="M69.3203 394.453L70.3975 401.03H87.1459L89.4212 394.453H69.3203Z" fill="#656565" stroke="#656565" stroke-linejoin="round"/>
<path d="M114.181 273.414C114.181 273.414 128.501 333.446 130.13 343.334C131.759 353.222 125.009 395.34 125.009 395.34L106.032 396.154C106.032 396.154 107.661 353.922 107.314 352.061C107.038 350.599 101.244 325.134 98.7617 314.242" stroke="#656565" stroke-miterlimit="10"/>
<path d="M104.359 394.686L105.121 400.038C105.121 400.038 123.456 400.119 124.563 399.805C125.349 399.036 126.371 394.453 126.371 394.453L104.359 394.686Z" fill="#656565" stroke="#656565" stroke-linejoin="round"/>
<path d="M73.0704 400.602C72.9678 403.244 72.72 405.879 72.3281 408.495" stroke="#656565" stroke-miterlimit="10"/>
<path d="M85.032 400.602C85.032 400.602 84.4201 408.761 84.7265 410.111" stroke="#656565" stroke-miterlimit="10"/>
<path d="M109.886 399.211C109.924 401.855 109.825 404.5 109.59 407.134" stroke="#656565" stroke-miterlimit="10"/>
<path d="M121.091 398.648C121.091 398.648 120.931 406.827 121.281 408.158" stroke="#656565" stroke-miterlimit="10"/>
<path d="M98.8487 418.048C95.4826 418.14 92.1282 417.614 88.9519 416.497C85.1305 414.849 81.7649 412.302 79.1427 409.072C73.9088 409.547 72.6403 407.428 72.0665 407.891C69.578 409.897 70.6248 420.586 70.6248 420.586C70.6248 420.586 73.0742 422.899 84.3813 423.51C96.5619 424.168 104.365 424.519 104.365 419.713C104.364 419.353 104.287 418.997 104.138 418.669C103.989 418.341 103.772 418.049 103.501 417.811C102.512 417.917 100.834 418.048 98.8487 418.048Z" fill="#656565"/>
<path d="M89.3514 415.515C93.41 417.161 99.0169 417.075 102.078 416.866C99.6773 415.662 95.8424 415.002 92.8476 413.672C90.3116 412.547 85.3822 408.518 85.3822 408.518C85.3822 408.518 85.8771 408.214 80.4062 408.925C82.8536 411.766 85.9113 414.019 89.3514 415.515Z" fill="#656565"/>
<path d="M134.736 414.798C131.536 414.879 128.345 414.424 125.295 413.452C121.711 412.072 118.505 409.865 115.937 407.012C110.94 407.42 109.733 405.585 109.186 405.988C106.812 407.728 107.81 416.999 107.81 416.999C107.81 416.999 110.147 419.005 120.934 419.535C132.55 420.105 139.994 420.41 139.998 416.242C139.993 415.924 139.916 415.611 139.774 415.326C139.631 415.041 139.426 414.792 139.174 414.597C138.231 414.683 136.629 414.798 134.736 414.798Z" fill="#656565"/>
<path d="M125.678 412.6C129.55 414.026 134.899 413.952 137.819 413.772C135.529 412.726 131.871 412.156 129.013 411.002C126.594 410.026 121.891 406.532 121.891 406.532C121.891 406.532 122.367 406.269 117.145 406.886C119.536 409.392 122.449 411.342 125.678 412.6Z" fill="#656565"/>
<path d="M177.062 225.483C177.062 225.483 177.158 225.182 177.335 224.772C177.682 223.986 178.341 222.808 179.247 222.648C179.368 222.627 179.49 222.613 179.612 222.605C180.689 222.517 181.97 224.032 180.331 225.685L180.07 225.856" stroke="#656565" stroke-linecap="round" stroke-linejoin="round"/>
</svg>
